<svg xmlns="http://www.w3.org/2000/svg" id="Layer_1" data-name="Layer 1" viewBox="0 0 520.17 94.58"><defs><style>.cls-1{fill:#231f20}</style></defs><path d="M520.17,73.11h-70.38v-2.31h70.38v2.31ZM484.94,59.71l6.63-6.34,2.74,2.74-7.13,6.05c-.58.72-1.01,1.87-1.37,2.59h-5.26c.29-1.94,3.03-4.39,4.39-5.04M462.83,19.24c-.21.07-5.47,1.51-5.47,1.51,0,0-2.45.94-3.53,1.66-1.08.72-2.3,1.94-2.38,2.59l4.68,1.08c.72-.79,1.51-1.66,2.23-2.23l1.08-.51,3.89-3.96s-.14-.22-.51-.14M494.67,32.13c-3.03-3.32-5.55-6.41-8-10.08,1.58-3.03,2.74-11.02,2.01-14.12-.29-.94-2.88-4.4-3.31-4.9-.65-.65-2.74-3.03-3.74-3.03-.22,0-.43.07-.51.14l.29,2.67c-2.81,1.8-6.48,4.25-9.8,6.7,0,.94.07,2.38.14,2.88.5.43,1.08.79,1.73,1.01,1.3-.22,5.33-1.23,6.41-1.08l-3.96,5.98-4.54,3.24-5.69-1.8c-.36-.07-.72,0-.94.29l-4.18,4.54c-.22.21-.36.43-.36.94l-.14,5.11s-.07.79-.07,1.66c0,3.67,1.66,5.4,1.66,5.4l2.74-3.96c-.36-.58-1.01-2.16-1.15-2.88,0-.14.07-4.39.07-4.39l2.67-1.95,7.06,4.97s1.95,3.6,3.82,5.77c1.23,1.51,7.35,5.62,10.3,7.34.29,1.59.94,4.18,1.44,5.55l8.64,8.86-5.12,6.41c-1.8,1.15-3.53,3.25-3.39,5.19h5.91l.65-3.39,7.06-7.85c.36-.44.36-.65.14-1.3l-2.02-6.77c1.01-1.15,3.17-4.03,3.17-7.49,0-6.26-6.84-7.85-9-9.65M505.76,42.57c-.43-1.65-1.08-3.53-1.58-4.46,0,0,.29-.29.87.07.58.36,4.25,2.88,4.25,2.88,1.87,2.74,3.02,13.97,3.1,18.01-1.73-.8-4.18-2.16-5.76-3.67l-.87-12.82Z" class="cls-1"/><path d="M322.93,40.12c0-4.32-1.37-7.71-5.11-7.71s-5.26,3.39-5.26,7.71v28.45h4.39v4.54h-24.06v-4.54h4.47V29.39h-4.47v-4.39h18.95v7.34h.22c1.8-4.03,5.98-8.28,12.68-8.28,7.06,0,11.38,4.32,12.75,10.01.51,2.24.65,5.91.65,7.78v26.73h5.76v4.54h-20.96v-32.99ZM225.76,40.12c0-4.32-1.37-7.71-5.11-7.71s-5.26,3.39-5.26,7.71v28.45h4.39v4.54h-24.06v-4.54h4.46V29.39h-4.46v-4.39h18.94v7.34h.22c1.8-4.03,5.98-8.28,12.68-8.28,7.06,0,11.38,4.32,12.75,10.01.51,2.24.65,5.91.65,7.78v26.73h5.77v4.54h-20.96v-32.99ZM364.28,29.39v35.59c0,2.45,1.58,3.02,3.1,3.02s2.81-.5,2.81-.5v4.39s-2.88,1.8-9.29,1.8c-7.49,0-11.89-3.68-11.89-11.45V29.39h-5.11v-3.24c5.69-4.54,12.32-9.73,17.58-14.12h2.81v12.97h7.35v4.39h-7.35ZM64.04,0s11.6,11.59,16.93,17.57v4.54c-4.97-5.26-15.27-9.65-24.85-9.65-21.68,0-35.3,16.35-35.3,36.59s12.9,36.52,35.3,36.52c11.16,0,20.1-5.26,25.07-10.66v4.32c-6.77,9.3-19.16,15.35-34.58,15.35C19.02,94.58,0,74.55,0,49.05S21.11,3.6,46.61,3.6c6.48,0,12.32,1.08,17.43,2.89V0ZM285.91,60.29c-2.16,2.52-5.55,4.46-10.59,4.46-4.4,0-11.17-2.45-11.45-13.61h25.71c.07-.87.14-2.6.14-3.46,0-13.54-5.54-23.62-20.02-23.62s-21.97,11.17-21.97,25.07,7.42,24.85,21.97,24.85c9.36,0,15.27-4.39,18.73-11.31l-2.52-2.38ZM263.87,46.46c0-12.68,1.01-17.43,5.33-17.43s5.26,4.61,5.4,17.43h-10.73ZM51.51,48.91c0-14.7,1.37-21.18,6.34-21.18s6.33,6.48,6.33,21.18-1.37,21.17-6.33,21.17-6.34-6.48-6.34-21.17M33.64,49.05c0,14.55,8.93,26.36,24.21,26.36s24.2-11.81,24.2-26.36-8.93-26.36-24.2-26.36-24.21,11.81-24.21,26.36M116.12,40.12c0-4.32-1.37-7.71-5.12-7.71s-5.26,3.39-5.26,7.71v28.45h4.39v4.54h-24.06v-4.54h4.46V29.39h-4.46v-4.39h18.94v7.34h.22c1.8-4.03,5.98-8.28,12.68-8.28,7.06,0,11.38,4.32,12.75,10.01.5,2.24.65,5.91.65,7.78v26.73h5.76v4.54h-20.96v-32.99ZM170.62,12.24c0,4.25,3.82,7.06,9.29,7.06s9.29-2.81,9.29-7.06-3.82-7.05-9.29-7.05-9.29,2.81-9.29,7.05M157.47,29.39v35.59c0,2.45,1.58,3.02,3.1,3.02s2.81-.5,2.81-.5v4.39s-2.88,1.8-9.29,1.8c-7.49,0-11.89-3.68-11.89-11.45V29.39h-5.12v-3.24c5.7-4.54,12.32-9.73,17.58-14.12h2.81v12.97h5.91v4.39h-5.91ZM438.48,68.57h5.91v4.54h-21.11V11.59h-5.26v-4.39h20.46v61.37ZM397.85,49.27c-.43-.43-1.37-1.01-3.31-1.01-4.54,0-5.55,4.47-5.55,9.07s1.37,8.21,5.26,8.21c1.87,0,3.02-.8,3.6-1.44v-14.84ZM398.5,67.34h-.22c-2.81,3.97-6.55,6.63-12.32,6.63-7.85,0-12.75-6.7-12.75-14.7,0-9.65,6.85-15.77,17.8-15.77,4.47,0,6.84,1.01,6.84,1.01v-3.03c0-5.84-3.6-8.93-8.86-8.93-7.28,0-11.02,5.62-11.02,5.62l-2.66-3.24c4.82-7.49,12.24-10.88,19.16-10.88,11.67,0,18.59,6.92,18.59,17.43v27.08h4.9v4.54h-19.45v-5.77ZM167.81,73.11v-4.54h4.4V29.39h-4.4v-4.39h19.6v43.58h4.46v4.54h-24.06Z" class="cls-1"/></svg>