<svg xmlns="http://www.w3.org/2000/svg" id="Layer_1" data-name="Layer 1" viewBox="0 0 734.51 232.4"><defs><style>.cls-1{fill:#00386c}</style></defs><path d="M220.03,136.58c.16,7.04,1.88,11.78,5.16,14.21,3.27,2.43,9.18,3.65,17.73,3.65h25.15c9.06,0,17.27-.17,24.65-.5l-6.28,34.46c-7.55.17-15.22.29-23.01.38-7.8.08-16.22.13-25.28.13-11.91,0-21.88-1.13-29.93-3.39-8.05-2.26-14.55-5.83-19.49-10.69-4.95-4.86-8.51-11.07-10.69-18.61-2.18-7.54-3.27-16.6-3.27-27.16v-13.83c0-11.07,1.17-20.54,3.52-28.42,2.35-7.88,6.12-14.42,11.32-19.62,5.2-5.2,11.86-9.01,19.99-11.45,8.13-2.43,17.9-3.65,29.3-3.65,21.13,0,36.51,4.15,46.16,12.45,9.64,8.3,14.46,21.09,14.46,38.36v5.54c0,5.2-.34,9.6-1.01,13.2-.68,3.61-1.93,6.5-3.77,8.68-1.85,2.18-4.32,3.77-7.42,4.78-3.1,1.01-7.08,1.51-11.94,1.51h-55.33ZM240.88,85.01c-3.52,0-8.49.34-10.92,1.01-2.43.67-4.4,1.85-5.91,3.52-1.51,1.68-3.11,3.99-3.7,6.83-.59,2.86-1.49,6.5-1.49,11.02h41.13c-.17-8.89-2.09-14.84-4.78-17.86-2.69-3.02-7.28-4.53-14.33-4.53M316.16,1.51h47.03v186.88h-47.03V1.51ZM515.65,128.78c0,12.24-1.26,22.43-3.77,30.56-2.51,8.14-6.25,14.68-11.19,19.62-4.95,4.95-11.03,8.47-18.23,10.56-7.21,2.1-15.51,3.14-24.9,3.14-6.38,0-11.78-.54-16.22-1.63-4.44-1.09-8.34-2.56-11.7-4.4v45.78h-47.03v-118.72c0-11.07,1.26-20.54,3.77-28.42,2.52-7.88,6.5-14.25,11.95-19.12,5.45-4.86,12.45-8.43,21-10.69,8.55-2.26,18.87-3.4,30.94-3.4s21.46,1.09,29.68,3.27c8.22,2.18,14.97,5.75,20.25,10.69,5.28,4.95,9.18,11.49,11.7,19.62,2.52,8.13,3.77,18.15,3.77,30.06v13.08ZM448.99,156.19c3.69,0,6.79-.33,9.31-1.01,2.52-.67,4.48-1.93,5.91-3.77,1.42-1.84,2.43-4.44,3.02-7.8.59-3.35.88-7.71.88-13.08v-16.35c0-5.54-.29-9.98-.88-13.33-.59-3.35-1.63-5.95-3.14-7.8-1.51-1.84-3.48-3.06-5.91-3.65-2.43-.59-5.49-.88-9.18-.88s-6.79.29-9.31.88c-2.51.59-4.53,1.8-6.03,3.65-1.51,1.85-2.56,4.4-3.14,7.67-.59,3.27-.88,7.59-.88,12.96v18.36c0,4.86.33,8.89,1.01,12.07.67,3.19,1.76,5.66,3.27,7.42,1.51,1.76,3.48,2.98,5.91,3.65,2.43.67,5.49,1.01,9.18,1.01M533.3,188.39V1.51h47.03v58.1c3.35-2.35,7.55-4.19,12.58-5.53,5.03-1.34,11.4-2.01,19.12-2.01,16.1,0,28.46,3.61,37.1,10.82,8.64,7.21,12.95,18.78,12.95,34.71v90.8h-47.03v-81.24c0-6.37-1.05-10.85-3.14-13.45-2.1-2.6-6.67-3.9-13.71-3.9s-11.78,1.38-14.21,4.15c-2.43,2.77-3.65,7.92-3.65,15.47v78.98h-47.03ZM734.51,20.88c0,3.52-.38,6.58-1.13,9.18-.75,2.6-2.1,4.74-4.03,6.41-1.93,1.68-4.57,2.94-7.92,3.77-3.36.84-7.63,1.26-12.83,1.26-10.23,0-17.1-1.63-20.62-4.9-3.52-3.27-5.28-8.51-5.28-15.72s1.76-12.28,5.28-15.72c3.52-3.44,10.39-5.16,20.62-5.16s17.1,1.72,20.62,5.16c3.52,3.43,5.28,8.68,5.28,15.72M685.22,56.09h47.03v132.3h-47.03V56.09ZM154.88,52.89c-2.43-9.8-6.7-17.92-12.81-24.37-6.12-6.45-14.32-11.26-24.62-14.45-10.3-3.18-23.32-4.77-39.07-4.77H0v178.87h79.64c15.24,0,27.93-1.72,38.06-5.15,10.13-3.43,18.21-8.46,24.24-15.08,6.03-6.61,10.3-14.82,12.82-24.62,2.51-9.8,3.77-20.98,3.77-33.54v-22.36c0-13.23-1.22-24.74-3.64-34.54M108.02,51.84l-13.29,93.52c-.9,6.3-6.29,10.98-12.66,10.98h-37.15l18.27-117.26h33.76c6.8,0,12.03,6.02,11.08,12.76" class="cls-1"/></svg>