<svg xmlns="http://www.w3.org/2000/svg" id="_ƒŒƒCƒ_1" data-name="ƒŒƒCƒ„[ 1" viewBox="0 0 232.79 76.49"><defs><style>.cls-1{fill:#fee7dc}.cls-2{fill:#f04f38}.cls-3{fill:#fab49b}.cls-4{fill:#f47f60}.cls-5{fill:#ef3f2f}.cls-6{fill:#ef372b}.cls-7{fill:#ee3029}.cls-8{fill:#f8a184}.cls-9{fill:#f8a88d}.cls-10{fill:#fffbf8}.cls-11{fill:#f9ab91}.cls-12{fill:#f15c41}.cls-13{fill:#f0543b}.cls-14{fill:#f04a34}.cls-15{fill:#fddfd1}.cls-16{fill:#fdddcf}.cls-17{fill:#f68c6e}.cls-18{fill:#f36f52}.cls-19{fill:#fab59c}.cls-20{fill:#fbcab6}.cls-21{fill:#ee2f28}.cls-22{fill:#feefe7}.cls-23{fill:#fff6f2}.cls-24{fill:#ee2726}.cls-25{fill:#fff1ea}.cls-26{fill:#f37254}.cls-27{fill:#f48062}.cls-28{fill:#fab69e}.cls-29{fill:#fffcfa}.cls-30{fill:#ee2926}.cls-31{fill:#fffdfd}.cls-32{fill:#f69274}.cls-33{fill:#fbc7b3}.cls-34{fill:#f47d5f}.cls-35{fill:#fff6f1}.cls-36{fill:#fccfbd}.cls-37{fill:#f16246}.cls-38{fill:#ee2a27}.cls-39{fill:#f4795a}.cls-40{fill:#f37759}.cls-41{fill:#f8a084}.cls-42{fill:#f58466}.cls-43{fill:#f69275}.cls-44{fill:#fdd5c4}.cls-45{fill:#ef382c}.cls-46{fill:#f15a3f}.cls-47{fill:#fff2ec}.cls-48{fill:#f47f61}.cls-49{fill:#fdded0}.cls-50{fill:#f68d6f}.cls-51{fill:#fff1eb}.cls-52{fill:#fbc5b0}.cls-53{fill:#f26548}.cls-54{fill:#f7977a}.cls-55{fill:#fdd4c3}.cls-56{fill:#f26448}.cls-57{fill:#ef392c}.cls-58{fill:#fff}.cls-59{fill:#f04b35}.cls-60{fill:#ef3e2e}.cls-61{fill:#f58668}.cls-62{fill:#fddcce}.cls-63{fill:#f9b197}.cls-64{fill:#feebe2}.cls-65{fill:#ed1c24}.cls-66{fill:#fbc2ad}.cls-67{fill:#f2674a}.cls-68{fill:#f26346}.cls-69{fill:#f37255}.cls-70{fill:#fbbfa9}.cls-71{fill:#fff7f4}.cls-72{fill:#f47a5c}.cls-73{fill:#fab69d}.cls-74{fill:#f9ab90}.cls-75{fill:#f8a286}.cls-76{fill:#f69679}.cls-77{fill:#f26c4e}.cls-78{fill:#fcd2c0}.cls-79{fill:#ee2c27}.cls-80{fill:#fabca5}.cls-81{fill:#f69577}.cls-82{fill:#fbbea8}.cls-83{fill:#f37355}.cls-84{fill:#fbc1ab}.cls-85{fill:#ef4833}.cls-86{fill:#f04c36}.cls-87{fill:#fee6db}.cls-88{fill:#f68f71}.cls-89{fill:#f37657}.cls-90{fill:#f1553c}.cls-91{fill:#f7987a}.cls-92{fill:#fccdba}.cls-93{fill:#f69476}.cls-94{fill:#fbc2ac}.cls-95{fill:#fde1d4}.cls-96{fill:#ef3b2d}.cls-97{fill:#f5886a}.cls-98{fill:#f47c5e}.cls-99{fill:#f58264}.cls-100{fill:#fde2d5}.cls-101{fill:#f7997c}.cls-102{fill:#f69173}.cls-103{fill:#fcccb9}.cls-104{fill:#f79c7f}.cls-105{fill:#f58b6d}.cls-106{fill:#f47b5d}.cls-107{fill:#f58769}.cls-108{fill:#fde3d6}.cls-109{fill:#fabba4}.cls-110{fill:#ef4632}.cls-111{fill:#ee2425}.cls-112{fill:#f58365}.cls-113{fill:#f0533a}.cls-114{fill:#f15b40}.cls-115{fill:#fbc6b1}.cls-116{fill:#f47c5d}.cls-117{fill:#f15b41}.cls-118{fill:#fdd6c5}.cls-119{fill:#fab9a1}.cls-120{fill:#f04e37}.cls-121{fill:#fef0e8}.cls-122{fill:#f37153}.cls-123{fill:#f26b4e}.cls-124{fill:#f8a185}.cls-125{fill:#f15d42}.cls-126{fill:#feece3}.cls-127{fill:#fdd8c8}.cls-128{fill:#f58567}.cls-129{fill:#fee5d9}.cls-130{fill:#f15e43}.cls-131{fill:#f79d80}.cls-132{fill:#fccebc}.cls-133{fill:#f79e81}.cls-134{fill:#f2694c}.cls-135{fill:#f2694b}.cls-136{fill:#ef402f}.cls-137{fill:#f68e70}.cls-138{fill:#f2684b}.cls-139{fill:#f37052}.cls-140{fill:#f9b39a}.cls-141{fill:#f79b7e}.cls-142{fill:#f37658}.cls-143{fill:#f36e50}.cls-144{fill:#fab8a0}.cls-145{fill:#ee2526}.cls-146{fill:#fee9df}.cls-147{fill:#feeee6}.cls-148{fill:#f7987b}.cls-149{fill:#f9ae94}.cls-150{fill:#f48263}.cls-151{fill:#f26649}.cls-152{fill:#fddfd2}.cls-153{fill:#fff4ee}.cls-154{fill:#f16044}.cls-155{fill:#ef4130}.cls-156{fill:#fddaca}.cls-157{fill:#fbc6b2}.cls-158{fill:#fff8f5}.cls-159{fill:#ed2225}.cls-160{fill:#f9b096}.cls-161{fill:#fccab7}.cls-162{fill:#f8a488}.cls-163{fill:#fddbcc}.cls-164{fill:#fee4d8}.cls-165{fill:#f9a98e}.cls-166{fill:#f5896b}.cls-167{fill:#f26a4d}.cls-168{fill:#f37557}.cls-169{fill:#fcd0be}.cls-170{fill:#fff3ed}.cls-171{fill:#fdd9c9}.cls-172{fill:#f9ae95}.cls-173{fill:#f04934}.cls-174{fill:#fcd1bf}.cls-175{fill:#fbc4af}.cls-176{fill:#f8a387}.cls-177{fill:#f58a6c}.cls-178{fill:#ef4733}.cls-179{fill:#fddbcb}.cls-180{fill:#f1593e}.cls-181{fill:#feece4}.cls-182{fill:#ee2d28}.cls-183{fill:#fabaa3}.cls-184{fill:#fccbb8}.cls-185{fill:#f1573d}.cls-186{fill:#f69072}.cls-187{fill:#f8a78b}.cls-188{fill:#fcd3c2}.cls-189{fill:#f37456}.cls-190{fill:#f26347}.cls-191{fill:#f79b7f}.cls-192{fill:#fde0d3}.cls-193{fill:#fbc3ae}.cls-194{fill:#fabaa2}.cls-195{fill:#ee362b}.cls-196{fill:#f9ac92}.cls-197{fill:#f9af96}.cls-198{fill:#f0523a}.cls-199{fill:#f9b299}.cls-200{fill:#f69376}.cls-201{fill:#fee8de}.cls-202{fill:#f9aa8f}.cls-203{fill:#fdd7c6}.cls-204{fill:#f48163}.cls-205{fill:#ef4431}.cls-206{fill:#fff9f7}.cls-207{fill:#f79a7d}.cls-208{fill:#ef3c2d}.cls-209{fill:#f79e82}.cls-210{fill:#ed2025}.cls-211{fill:#f79f83}.cls-212{fill:#f8a58a}.cls-213{fill:#f47e60}.cls-214{fill:#fbc0aa}.cls-215{fill:#f05038}.cls-216{fill:#fabda6}.cls-217{fill:#f4795b}.cls-218{fill:#f8a78c}.cls-219{fill:#ef4531}.cls-220{fill:#f1563c}.cls-221{fill:#f15f43}.cls-222{fill:#f8a68b}.cls-223{fill:#fbbea7}.cls-224{fill:#f36d4f}.cls-225{fill:#f04d36}.cls-226{fill:#f16145}.cls-227{fill:#feeae0}.cls-228{fill:#fee7dd}.cls-229{fill:#fab79f}.cls-230{fill:#f69578}.cls-231{fill:#fbc8b4}.cls-232{fill:#f9b298}.cls-233{fill:#ee3229}.cls-234{fill:#ee342a}.cls-235{fill:#ee332a}.cls-236{fill:#fee3d7}.cls-237{fill:#fcd3c1}.cls-238{fill:#f05139}.cls-239{fill:#fbc9b5}.cls-240{fill:#f36e51}.cls-241{fill:#fccebb}.cls-242{fill:#f1583e}.cls-243{fill:#ef4230}.cls-244{fill:#f9ad93}.cls-245{fill:#f4785a}.cls-246{fill:#fff5f0}.cls-247{fill:#fdd7c7}.cls-248{fill:#ef3d2e}.cls-249{fill:#feede5}.cls-250{fill:#f8a489}</style></defs><g><polygon points="232.79 76.49 0 76.28 0 0 232.79 0 232.79 76.49" class="cls-65"/><g><path d="M40.12,38.2c0-13.89,3.72-26.91,10.21-38.12h-27.64c-4.8,11.77-7.45,24.63-7.45,38.12s2.65,26.36,7.45,38.12h27.65c-6.49-11.22-10.22-24.24-10.22-38.12Z" class="cls-65"/><path d="M22.8.08c-4.81,11.77-7.46,24.63-7.46,38.12s2.66,26.36,7.46,38.12h27.55c-6.5-11.22-10.22-24.24-10.22-38.12S43.85,11.29,50.34.08h-27.55Z" class="cls-65"/><path d="M22.9.08c-4.81,11.76-7.47,24.63-7.47,38.12s2.66,26.36,7.47,38.12h27.45c-6.5-11.22-10.22-24.24-10.22-38.12S43.86,11.29,50.35.08h-27.45Z" class="cls-210"/><path d="M23.01.08c-4.82,11.76-7.49,24.63-7.49,38.12s2.66,26.36,7.49,38.12h27.35c-6.5-11.22-10.22-24.24-10.22-38.12S43.87,11.29,50.36.08h-27.35Z" class="cls-159"/><path d="M23.12.08c-4.83,11.76-7.5,24.63-7.5,38.12s2.67,26.37,7.5,38.12h27.26c-6.5-11.22-10.22-24.24-10.22-38.12S43.88,11.29,50.37.08h-27.25Z" class="cls-111"/><path d="M23.23.08c-4.83,11.76-7.51,24.63-7.51,38.12s2.67,26.37,7.51,38.12h27.16c-6.5-11.22-10.22-24.24-10.22-38.12S43.89,11.28,50.38.08h-27.15Z" class="cls-145"/><path d="M23.34.08c-4.84,11.76-7.52,24.62-7.52,38.12s2.68,26.37,7.52,38.12h27.06c-6.5-11.22-10.22-24.24-10.22-38.12S43.9,11.28,50.39.08h-27.06Z" class="cls-24"/><path d="M23.45.08c-4.85,11.75-7.53,24.62-7.53,38.12s2.68,26.37,7.53,38.12h26.96c-6.5-11.22-10.23-24.24-10.23-38.12S43.91,11.28,50.4.08h-26.96Z" class="cls-30"/><path d="M23.55.08c-4.85,11.75-7.54,24.62-7.54,38.12s2.69,26.37,7.54,38.12h26.86c-6.5-11.21-10.23-24.24-10.23-38.12S43.92,11.28,50.41.08h-26.86Z" class="cls-38"/><path d="M23.66.08c-4.86,11.75-7.55,24.62-7.55,38.12s2.69,26.38,7.55,38.12h26.77c-6.5-11.21-10.23-24.24-10.23-38.12S43.93,11.28,50.42.08h-26.76Z" class="cls-79"/><path d="M23.77.08c-4.87,11.75-7.56,24.62-7.56,38.12s2.69,26.38,7.56,38.12h26.67c-6.5-11.21-10.23-24.24-10.23-38.12S43.94,11.28,50.44.08h-26.66Z" class="cls-182"/><path d="M23.88.08c-4.87,11.74-7.57,24.62-7.57,38.12s2.7,26.38,7.57,38.12h26.57c-6.5-11.21-10.23-24.24-10.23-38.12S43.94,11.28,50.45.08h-26.57Z" class="cls-21"/><path d="M23.99.08c-4.88,11.74-7.58,24.62-7.58,38.12s2.7,26.38,7.58,38.12h26.47c-6.51-11.21-10.23-24.24-10.23-38.12S43.95,11.28,50.46.08h-26.47Z" class="cls-7"/><path d="M24.1.08c-4.89,11.74-7.59,24.61-7.59,38.12s2.71,26.39,7.59,38.12h26.37c-6.51-11.21-10.23-24.24-10.23-38.12S43.96,11.28,50.47.08h-26.37Z" class="cls-233"/><path d="M24.21.08c-4.89,11.74-7.6,24.61-7.6,38.12s2.71,26.39,7.6,38.12h26.27c-6.51-11.21-10.24-24.24-10.24-38.12S43.97,11.28,50.48.08h-26.27Z" class="cls-235"/><path d="M24.31.08c-4.9,11.73-7.61,24.61-7.61,38.12s2.72,26.39,7.61,38.12h26.18c-6.51-11.21-10.24-24.23-10.24-38.12S43.98,11.28,50.49.08h-26.17Z" class="cls-234"/><path d="M24.42.08c-4.91,11.73-7.63,24.61-7.63,38.12s2.72,26.39,7.63,38.12h26.08c-6.51-11.21-10.24-24.23-10.24-38.12S43.99,11.28,50.5.08h-26.08Z" class="cls-195"/><path d="M24.53.08c-4.91,11.73-7.64,24.61-7.64,38.12s2.72,26.39,7.64,38.12h25.98c-6.51-11.21-10.24-24.23-10.24-38.12S44,11.28,50.51.08h-25.98Z" class="cls-6"/><path d="M24.64.08c-4.92,11.73-7.65,24.61-7.65,38.12s2.73,26.4,7.65,38.12h25.88c-6.51-11.21-10.24-24.23-10.24-38.12S44.01,11.28,50.52.08h-25.88Z" class="cls-45"/><path d="M24.75.08c-4.93,11.73-7.66,24.6-7.66,38.12s2.73,26.4,7.66,38.12h25.79c-6.51-11.21-10.24-24.23-10.24-38.12S44.02,11.28,50.53.08h-25.78Z" class="cls-57"/><path d="M24.86.08c-4.93,11.72-7.67,24.6-7.67,38.12s2.74,26.4,7.67,38.12h25.69c-6.51-11.21-10.24-24.23-10.24-38.12S44.03,11.28,50.54.08h-25.68Z" class="cls-96"/><path d="M24.96.08c-4.94,11.72-7.68,24.6-7.68,38.12s2.74,26.4,7.68,38.12h25.59c-6.51-11.21-10.25-24.23-10.25-38.12S44.04,11.28,50.55.08h-25.59Z" class="cls-208"/><path d="M25.07.08c-4.95,11.72-7.69,24.6-7.69,38.12s2.74,26.4,7.69,38.12h25.49c-6.51-11.21-10.25-24.23-10.25-38.12S44.05,11.28,50.56.08h-25.49Z" class="cls-248"/><path d="M25.18.08c-4.95,11.72-7.7,24.6-7.7,38.12s2.75,26.41,7.7,38.12h25.39c-6.51-11.21-10.25-24.23-10.25-38.12S44.06,11.28,50.57.08h-25.39Z" class="cls-60"/><path d="M25.29.08c-4.96,11.72-7.71,24.6-7.71,38.12s2.75,26.41,7.71,38.12h25.3c-6.52-11.21-10.25-24.23-10.25-38.12S44.07,11.28,50.58.08h-25.29Z" class="cls-5"/><path d="M25.4.08c-4.97,11.71-7.72,24.59-7.72,38.12s2.76,26.41,7.72,38.12h25.2c-6.52-11.21-10.25-24.23-10.25-38.12S44.08,11.28,50.59.08h-25.19Z" class="cls-136"/><path d="M25.51.08c-4.97,11.71-7.73,24.59-7.73,38.12s2.76,26.41,7.73,38.12h25.1c-6.52-11.21-10.25-24.23-10.25-38.12S44.09,11.28,50.6.08h-25.1Z" class="cls-155"/><path d="M25.61.08c-4.98,11.71-7.75,24.59-7.75,38.12s2.77,26.42,7.75,38.12h25c-6.52-11.21-10.25-24.23-10.25-38.12S44.1,11.28,50.61.08h-25Z" class="cls-243"/><path d="M25.72.08c-4.99,11.71-7.76,24.59-7.76,38.12s2.77,26.42,7.76,38.12h24.9c-6.52-11.21-10.26-24.23-10.26-38.12S44.11,11.28,50.62.08h-24.9Z" class="cls-205"/><path d="M25.83.08c-4.99,11.7-7.77,24.59-7.77,38.12s2.77,26.42,7.77,38.12h24.81c-6.52-11.21-10.26-24.23-10.26-38.12S44.12,11.28,50.63.08h-24.8Z" class="cls-219"/><path d="M25.94.08c-5,11.7-7.78,24.59-7.78,38.12s2.78,26.42,7.78,38.12h24.71c-6.52-11.21-10.26-24.23-10.26-38.12S44.13,11.28,50.64.08h-24.7Z" class="cls-110"/><path d="M26.05.08c-5.01,11.7-7.79,24.58-7.79,38.12s2.78,26.42,7.79,38.12h24.61c-6.52-11.21-10.26-24.23-10.26-38.12S44.14,11.28,50.65.08h-24.61Z" class="cls-178"/><path d="M26.16.08c-5.01,11.7-7.8,24.58-7.8,38.12s2.79,26.43,7.8,38.12h24.51c-6.52-11.21-10.26-24.23-10.26-38.12S44.15,11.28,50.67.08h-24.51Z" class="cls-85"/><path d="M26.27.08c-5.02,11.7-7.81,24.58-7.81,38.12s2.79,26.43,7.81,38.12h24.41c-6.52-11.21-10.26-24.23-10.26-38.12S44.15,11.28,50.68.08h-24.41Z" class="cls-173"/><path d="M26.37.08c-5.03,11.69-7.82,24.58-7.82,38.12s2.79,26.43,7.82,38.12h24.32c-6.52-11.21-10.26-24.23-10.26-38.12S44.17,11.28,50.69.08h-24.31Z" class="cls-14"/><path d="M26.48.08c-5.03,11.69-7.83,24.58-7.83,38.12s2.8,26.43,7.83,38.12h24.22c-6.52-11.21-10.27-24.23-10.27-38.12S44.17,11.28,50.7.08h-24.21Z" class="cls-59"/><path d="M26.59.08c-5.04,11.69-7.84,24.58-7.84,38.12s2.8,26.44,7.84,38.12h24.12c-6.53-11.21-10.27-24.23-10.27-38.12S44.18,11.27,50.71.08h-24.12Z" class="cls-86"/><path d="M26.7.08c-5.05,11.69-7.85,24.58-7.85,38.12s2.81,26.44,7.85,38.12h24.02c-6.53-11.21-10.27-24.23-10.27-38.12S44.19,11.27,50.72.08h-24.02Z" class="cls-225"/><path d="M26.81.08c-5.05,11.68-7.86,24.57-7.86,38.12s2.81,26.44,7.86,38.12h23.92c-6.53-11.2-10.27-24.23-10.27-38.12S44.2,11.27,50.73.08h-23.92Z" class="cls-120"/><path d="M26.92.08c-5.06,11.68-7.88,24.57-7.88,38.12s2.82,26.44,7.88,38.12h23.83c-6.53-11.2-10.27-24.23-10.27-38.12S44.21,11.27,50.74.08h-23.82Z" class="cls-2"/><path d="M27.02.08c-5.07,11.68-7.89,24.57-7.89,38.12s2.82,26.44,7.89,38.12h23.73c-6.53-11.2-10.27-24.23-10.27-38.12S44.22,11.27,50.75.08h-23.72Z" class="cls-215"/><path d="M27.13.08c-5.07,11.68-7.9,24.57-7.9,38.12s2.82,26.45,7.9,38.12h23.63c-6.53-11.2-10.27-24.23-10.27-38.12S44.23,11.27,50.76.08h-23.63Z" class="cls-238"/><path d="M27.24.08c-5.08,11.68-7.91,24.57-7.91,38.12s2.83,26.45,7.91,38.12h23.53c-6.53-11.2-10.28-24.23-10.28-38.12S44.24,11.27,50.77.08h-23.53Z" class="cls-198"/><path d="M27.35.08c-5.09,11.67-7.92,24.57-7.92,38.12s2.83,26.45,7.92,38.12h23.43c-6.53-11.2-10.28-24.23-10.28-38.12S44.25,11.27,50.78.08h-23.43Z" class="cls-113"/><path d="M27.46.08c-5.09,11.67-7.93,24.56-7.93,38.12s2.84,26.45,7.93,38.12h23.34c-6.53-11.2-10.28-24.23-10.28-38.12S44.26,11.27,50.79.08h-23.33Z" class="cls-13"/><path d="M27.57.08c-5.1,11.67-7.94,24.56-7.94,38.12s2.84,26.45,7.94,38.12h23.24c-6.53-11.2-10.28-24.23-10.28-38.12S44.27,11.27,50.8.08h-23.23Z" class="cls-90"/><path d="M27.67.08c-5.11,11.67-7.95,24.56-7.95,38.12s2.85,26.46,7.95,38.12h23.14c-6.53-11.2-10.28-24.23-10.28-38.12S44.28,11.27,50.81.08h-23.14Z" class="cls-220"/><path d="M27.78.08c-5.11,11.66-7.96,24.56-7.96,38.12s2.85,26.46,7.96,38.12h23.04c-6.54-11.2-10.28-24.23-10.28-38.12S44.29,11.27,50.82.08h-23.04Z" class="cls-185"/><path d="M27.89.08c-5.12,11.66-7.97,24.56-7.97,38.12s2.85,26.46,7.97,38.12h22.94c-6.54-11.2-10.29-24.23-10.29-38.12S44.3,11.27,50.83.08h-22.94Z" class="cls-242"/><path d="M28,.08c-5.12,11.66-7.98,24.56-7.98,38.12s2.86,26.46,7.98,38.12h22.85c-6.54-11.2-10.29-24.23-10.29-38.12S44.31,11.27,50.84.08h-22.84Z" class="cls-180"/><path d="M28.11.08c-5.13,11.66-7.99,24.55-7.99,38.12s2.86,26.47,7.99,38.12h22.75c-6.54-11.2-10.29-24.23-10.29-38.12S44.32,11.27,50.85.08h-22.74Z" class="cls-46"/><path d="M28.22.08c-5.14,11.66-8,24.55-8,38.12s2.87,26.47,8,38.12h22.65c-6.54-11.2-10.29-24.23-10.29-38.12S44.33,11.27,50.86.08h-22.65Z" class="cls-114"/><path d="M28.33.08c-5.15,11.65-8.02,24.55-8.02,38.12s2.87,26.47,8.02,38.12h22.55c-6.54-11.2-10.29-24.23-10.29-38.12S44.34,11.27,50.87.08h-22.55Z" class="cls-117"/><path d="M28.43.08c-5.15,11.65-8.03,24.55-8.03,38.12s2.87,26.47,8.03,38.12h22.45c-6.54-11.2-10.29-24.23-10.29-38.12S44.35,11.27,50.88.08h-22.45Z" class="cls-12"/><path d="M28.54.08c-5.16,11.65-8.04,24.55-8.04,38.12s2.88,26.47,8.04,38.12h22.36c-6.54-11.2-10.29-24.23-10.29-38.12S44.36,11.27,50.9.08h-22.35Z" class="cls-125"/><path d="M28.65.08c-5.16,11.65-8.05,24.55-8.05,38.12s2.88,26.48,8.05,38.12h22.26c-6.54-11.2-10.3-24.23-10.3-38.12S44.37,11.27,50.91.08h-22.26Z" class="cls-130"/><path d="M28.76.08c-5.17,11.65-8.06,24.55-8.06,38.12s2.89,26.48,8.06,38.12h22.16c-6.54-11.2-10.3-24.23-10.3-38.12S44.37,11.27,50.92.08h-22.16Z" class="cls-221"/><path d="M28.87.08c-5.18,11.64-8.07,24.54-8.07,38.12s2.89,26.48,8.07,38.12h22.06c-6.54-11.2-10.3-24.23-10.3-38.12S44.38,11.27,50.93.08h-22.06Z" class="cls-154"/><path d="M28.98.08c-5.19,11.64-8.08,24.54-8.08,38.12s2.9,26.48,8.08,38.12h21.96c-6.55-11.2-10.3-24.23-10.3-38.12S44.39,11.27,50.94.08h-21.96Z" class="cls-226"/><path d="M29.08.08c-5.19,11.64-8.09,24.54-8.09,38.12s2.9,26.48,8.09,38.12h21.87c-6.55-11.2-10.3-24.23-10.3-38.12S44.4,11.27,50.95.08h-21.86Z" class="cls-37"/><path d="M29.19.08c-5.2,11.64-8.1,24.54-8.1,38.12s2.9,26.49,8.1,38.12h21.77c-6.55-11.2-10.3-24.22-10.3-38.12S44.41,11.27,50.96.08h-21.77Z" class="cls-68"/><path d="M29.3.08c-5.21,11.63-8.11,24.54-8.11,38.12s2.91,26.49,8.11,38.12h21.67c-6.55-11.2-10.3-24.22-10.3-38.12S44.42,11.27,50.97.08h-21.67Z" class="cls-190"/><path d="M29.41.08c-5.21,11.63-8.12,24.54-8.12,38.12s2.91,26.49,8.12,38.12h21.57c-6.55-11.2-10.31-24.22-10.31-38.12S44.43,11.27,50.98.08h-21.57Z" class="cls-56"/><path d="M29.52.08c-5.22,11.63-8.13,24.53-8.13,38.12s2.92,26.49,8.13,38.12h21.47c-6.55-11.2-10.31-24.22-10.31-38.12S44.44,11.27,50.99.08h-21.47Z" class="cls-53"/><path d="M29.63.08c-5.23,11.63-8.15,24.53-8.15,38.12s2.92,26.5,8.15,38.12h21.38c-6.55-11.2-10.31-24.22-10.31-38.12S44.45,11.27,51,.08h-21.37Z" class="cls-151"/><path d="M29.73.08c-5.23,11.63-8.16,24.53-8.16,38.12s2.92,26.5,8.16,38.12h21.28c-6.55-11.2-10.31-24.22-10.31-38.12S44.46,11.27,51.01.08h-21.28Z" class="cls-67"/><path d="M29.84.08c-5.24,11.62-8.17,24.53-8.17,38.12s2.93,26.5,8.17,38.12h21.18c-6.55-11.2-10.31-24.22-10.31-38.12S44.47,11.27,51.02.08h-21.18Z" class="cls-138"/><path d="M29.95.08c-5.24,11.62-8.18,24.53-8.18,38.12s2.93,26.5,8.18,38.12h21.08c-6.55-11.2-10.31-24.22-10.31-38.12S44.48,11.26,51.03.08h-21.08Z" class="cls-135"/><path d="M30.06.08c-5.25,11.62-8.19,24.53-8.19,38.12s2.94,26.5,8.19,38.12h20.98c-6.55-11.2-10.31-24.22-10.31-38.12S44.49,11.26,51.04.08h-20.98Z" class="cls-134"/><path d="M30.17.08c-5.26,11.62-8.2,24.52-8.2,38.12s2.94,26.51,8.2,38.12h20.89c-6.55-11.19-10.32-24.22-10.32-38.12S44.5,11.26,51.05.08h-20.88Z" class="cls-167"/><path d="M30.28.08c-5.27,11.62-8.21,24.52-8.21,38.12s2.95,26.51,8.21,38.12h20.79c-6.56-11.19-10.32-24.22-10.32-38.12S44.51,11.26,51.06.08h-20.79Z" class="cls-123"/><path d="M30.39.08c-5.27,11.61-8.22,24.52-8.22,38.12s2.95,26.51,8.22,38.12h20.69c-6.56-11.19-10.32-24.22-10.32-38.12S44.52,11.26,51.07.08h-20.69Z" class="cls-77"/><path d="M30.49.08c-5.28,11.61-8.23,24.52-8.23,38.12s2.95,26.51,8.23,38.12h20.59c-6.56-11.19-10.32-24.22-10.32-38.12S44.53,11.26,51.08.08h-20.59Z" class="cls-224"/><path d="M30.6.08c-5.29,11.61-8.24,24.52-8.24,38.12s2.96,26.51,8.24,38.12h20.49c-6.56-11.19-10.32-24.22-10.32-38.12S44.54,11.26,51.09.08h-20.49Z" class="cls-143"/><path d="M30.71.08c-5.29,11.61-8.25,24.52-8.25,38.12s2.96,26.52,8.25,38.12h20.4c-6.56-11.19-10.32-24.22-10.32-38.12S44.55,11.26,51.1.08h-20.39Z" class="cls-240"/><path d="M30.82.08c-5.3,11.6-8.27,24.52-8.27,38.12s2.97,26.52,8.27,38.12h20.3c-6.56-11.19-10.32-24.22-10.32-38.12S44.56,11.26,51.11.08h-20.3Z" class="cls-18"/><path d="M30.93.08c-5.31,11.6-8.28,24.51-8.28,38.12s2.97,26.52,8.28,38.12h20.2c-6.56-11.19-10.33-24.22-10.33-38.12S44.57,11.26,51.12.08h-20.2Z" class="cls-139"/><path d="M31.04.08c-5.31,11.6-8.29,24.51-8.29,38.12s2.97,26.52,8.29,38.12h20.1c-6.56-11.19-10.33-24.22-10.33-38.12S44.57,11.26,51.14.08h-20.1Z" class="cls-122"/><path d="M31.14.08c-5.32,11.6-8.3,24.51-8.3,38.12s2.98,26.52,8.3,38.12h20c-6.56-11.19-10.33-24.22-10.33-38.12S44.59,11.26,51.15.08h-20Z" class="cls-26"/><path d="M31.25.08c-5.33,11.6-8.31,24.51-8.31,38.12s2.98,26.53,8.31,38.12h19.91c-6.56-11.19-10.33-24.22-10.33-38.12S44.59,11.26,51.16.08h-19.9Z" class="cls-69"/><path d="M31.36.08c-5.33,11.59-8.32,24.51-8.32,38.12s2.99,26.53,8.32,38.12h19.81c-6.56-11.19-10.33-24.22-10.33-38.12S44.6,11.26,51.17.08h-19.81Z" class="cls-83"/><path d="M31.47.08c-5.34,11.59-8.33,24.51-8.33,38.12s2.99,26.53,8.33,38.12h19.71c-6.56-11.19-10.33-24.22-10.33-38.12S44.61,11.26,51.18.08h-19.71Z" class="cls-189"/><path d="M31.58.08c-5.34,11.59-8.34,24.5-8.34,38.12s3,26.53,8.34,38.12h19.61c-6.57-11.19-10.33-24.22-10.33-38.12S44.62,11.26,51.19.08h-19.61Z" class="cls-168"/><path d="M31.69.08c-5.35,11.59-8.35,24.5-8.35,38.12s3,26.54,8.35,38.12h19.51c-6.57-11.19-10.34-24.22-10.34-38.12S44.63,11.26,51.2.08h-19.51Z" class="cls-89"/><path d="M31.79.08c-5.36,11.58-8.36,24.5-8.36,38.12s3,26.54,8.36,38.12h19.42c-6.57-11.19-10.34-24.22-10.34-38.12S44.64,11.26,51.21.08h-19.41Z" class="cls-142"/><path d="M31.9.08c-5.36,11.58-8.37,24.5-8.37,38.12s3.01,26.54,8.37,38.12h19.32c-6.57-11.19-10.34-24.22-10.34-38.12S44.65,11.26,51.22.08h-19.32Z" class="cls-40"/><path d="M32.01.08c-5.37,11.58-8.38,24.5-8.38,38.12s3.01,26.54,8.38,38.12h19.22c-6.57-11.19-10.34-24.22-10.34-38.12S44.66,11.26,51.23.08h-19.22Z" class="cls-245"/><path d="M32.12.08c-5.38,11.58-8.4,24.5-8.4,38.12s3.02,26.54,8.4,38.12h19.12c-6.57-11.19-10.34-24.22-10.34-38.12S44.67,11.26,51.24.08h-19.12Z" class="cls-39"/><path d="M32.23.08c-5.38,11.58-8.41,24.5-8.41,38.12s3.02,26.55,8.41,38.12h19.02c-6.57-11.19-10.34-24.22-10.34-38.12S44.68,11.26,51.25.08h-19.02Z" class="cls-217"/><path d="M32.34.08c-5.39,11.57-8.42,24.49-8.42,38.12s3.03,26.55,8.42,38.12h18.93c-6.57-11.19-10.35-24.22-10.35-38.12S44.69,11.26,51.26.08h-18.92Z" class="cls-72"/><path d="M32.45.08c-5.4,11.57-8.43,24.49-8.43,38.12s3.03,26.55,8.43,38.12h18.83c-6.57-11.19-10.35-24.22-10.35-38.12S44.7,11.26,51.27.08h-18.83Z" class="cls-106"/><path d="M32.55.08c-5.4,11.57-8.44,24.49-8.44,38.12s3.03,26.55,8.44,38.12h18.73c-6.57-11.19-10.35-24.22-10.35-38.12S44.71,11.26,51.28.08h-18.73Z" class="cls-116"/><path d="M32.66.08c-5.41,11.57-8.45,24.49-8.45,38.12s3.04,26.56,8.45,38.12h18.63c-6.57-11.19-10.35-24.22-10.35-38.12S44.72,11.26,51.29.08h-18.63Z" class="cls-98"/><path d="M32.77.08c-5.42,11.56-8.46,24.49-8.46,38.12s3.04,26.56,8.46,38.12h18.53c-6.58-11.19-10.35-24.22-10.35-38.12S44.73,11.26,51.3.08h-18.53Z" class="cls-34"/><path d="M32.88.08c-5.42,11.56-8.47,24.49-8.47,38.12s3.05,26.56,8.47,38.12h18.44c-6.58-11.19-10.35-24.22-10.35-38.12S44.74,11.26,51.31.08h-18.43Z" class="cls-213"/><path d="M32.99.08c-5.43,11.56-8.48,24.48-8.48,38.12s3.05,26.56,8.48,38.12h18.34c-6.58-11.19-10.35-24.22-10.35-38.12S44.75,11.26,51.32.08h-18.34Z" class="cls-4"/><path d="M33.1.08c-5.44,11.56-8.49,24.48-8.49,38.12s3.05,26.56,8.49,38.12h18.24c-6.58-11.19-10.35-24.22-10.35-38.12S44.76,11.26,51.33.08h-18.24Z" class="cls-48"/><path d="M33.2.08c-5.44,11.56-8.5,24.48-8.5,38.12s3.06,26.57,8.5,38.12h18.14c-6.58-11.19-10.36-24.22-10.36-38.12S44.77,11.25,51.34.08h-18.14Z" class="cls-27"/><path d="M33.31.08c-5.45,11.55-8.51,24.48-8.51,38.12s3.06,26.57,8.51,38.12h18.04c-6.58-11.19-10.36-24.22-10.36-38.12S44.78,11.25,51.36.08h-18.04Z" class="cls-204"/><path d="M33.42.08c-5.46,11.55-8.52,24.48-8.52,38.12s3.07,26.57,8.52,38.12h17.95c-6.58-11.19-10.36-24.22-10.36-38.12S44.79,11.25,51.37.08h-17.94Z" class="cls-150"/><path d="M33.53.08c-5.46,11.55-8.54,24.48-8.54,38.12s3.07,26.57,8.54,38.12h17.85c-6.58-11.18-10.36-24.22-10.36-38.12S44.79,11.25,51.38.08h-17.85Z" class="cls-99"/><path d="M33.64.08c-5.47,11.55-8.55,24.47-8.55,38.12s3.08,26.57,8.55,38.12h17.75c-6.58-11.18-10.36-24.22-10.36-38.12S44.8,11.25,51.39.08h-17.75Z" class="cls-112"/><path d="M33.75.08c-5.48,11.55-8.56,24.47-8.56,38.12s3.08,26.58,8.56,38.12h17.65c-6.58-11.18-10.36-24.22-10.36-38.12S44.81,11.25,51.4.08h-17.65Z" class="cls-42"/><path d="M33.86.08c-5.48,11.54-8.57,24.47-8.57,38.12s3.08,26.58,8.57,38.12h17.55c-6.58-11.18-10.36-24.21-10.36-38.12S44.82,11.25,51.41.08h-17.55Z" class="cls-42"/><path d="M33.96.08c-5.49,11.54-8.58,24.47-8.58,38.12s3.09,26.58,8.58,38.12h17.46c-6.58-11.18-10.37-24.22-10.37-38.12S44.83,11.25,51.42.08h-17.45Z" class="cls-128"/><path d="M34.07.08c-5.5,11.54-8.59,24.47-8.59,38.12s3.09,26.58,8.59,38.12h17.36c-6.59-11.18-10.37-24.21-10.37-38.12S44.84,11.25,51.43.08h-17.36Z" class="cls-61"/><path d="M34.18.08c-5.5,11.54-8.6,24.47-8.6,38.12s3.1,26.59,8.6,38.12h17.26c-6.59-11.18-10.37-24.21-10.37-38.12S44.85,11.25,51.44.08h-17.26Z" class="cls-107"/><path d="M34.29.08c-5.51,11.53-8.61,24.46-8.61,38.12s3.1,26.59,8.61,38.12h17.16c-6.59-11.18-10.37-24.21-10.37-38.12S44.86,11.25,51.45.08h-17.16Z" class="cls-107"/><path d="M34.4.08c-5.52,11.53-8.62,24.46-8.62,38.12s3.1,26.59,8.62,38.12h17.06c-6.59-11.18-10.37-24.21-10.37-38.12S44.87,11.25,51.46.08h-17.06Z" class="cls-97"/><path d="M34.51.08c-5.52,11.53-8.63,24.46-8.63,38.12s3.11,26.59,8.63,38.12h16.97c-6.59-11.18-10.37-24.21-10.37-38.12S44.88,11.25,51.47.08h-16.96Z" class="cls-166"/><path d="M34.61.08c-5.53,11.53-8.64,24.46-8.64,38.12s3.11,26.59,8.64,38.12h16.87c-6.59-11.18-10.38-24.21-10.38-38.12S44.89,11.25,51.48.08h-16.87Z" class="cls-177"/><path d="M34.72.08c-5.54,11.53-8.65,24.46-8.65,38.12s3.12,26.6,8.65,38.12h16.77c-6.59-11.18-10.38-24.21-10.38-38.12S44.9,11.25,51.49.08h-16.77Z" class="cls-177"/><path d="M34.83.08c-5.54,11.52-8.67,24.46-8.67,38.12s3.12,26.6,8.67,38.12h16.67c-6.59-11.18-10.38-24.21-10.38-38.12S44.91,11.25,51.5.08h-16.67Z" class="cls-105"/><path d="M34.94.08c-5.55,11.52-8.68,24.46-8.68,38.12s3.13,26.6,8.68,38.12h16.58c-6.59-11.18-10.38-24.21-10.38-38.12S44.92,11.25,51.51.08h-16.57Z" class="cls-17"/><path d="M35.05.08c-5.56,11.52-8.69,24.45-8.69,38.12s3.13,26.6,8.69,38.12h16.48c-6.59-11.18-10.38-24.21-10.38-38.12S44.93,11.25,51.52.08h-16.47Z" class="cls-50"/><path d="M35.16.08c-5.56,11.52-8.7,24.45-8.7,38.12s3.13,26.6,8.7,38.12h16.38c-6.59-11.18-10.38-24.21-10.38-38.12S44.94,11.25,51.53.08h-16.38Z" class="cls-50"/><path d="M35.26.08c-5.57,11.52-8.71,24.45-8.71,38.12s3.14,26.61,8.71,38.12h16.28c-6.6-11.18-10.38-24.21-10.38-38.12S44.95,11.25,51.54.08h-16.28Z" class="cls-137"/><path d="M35.37.08c-5.58,11.51-8.72,24.45-8.72,38.12s3.14,26.61,8.72,38.12h16.18c-6.6-11.18-10.39-24.21-10.39-38.12S44.96,11.25,51.55.08h-16.18Z" class="cls-88"/><path d="M35.48.08c-5.58,11.51-8.73,24.45-8.73,38.12s3.15,26.61,8.73,38.12h16.08c-6.6-11.18-10.39-24.21-10.39-38.12S44.97,11.25,51.56.08h-16.08Z" class="cls-186"/><path d="M35.59.08c-5.59,11.51-8.74,24.45-8.74,38.12s3.15,26.61,8.74,38.12h15.99c-6.6-11.18-10.39-24.21-10.39-38.12S44.98,11.25,51.57.08h-15.98Z" class="cls-186"/><path d="M35.7.08c-5.6,11.51-8.75,24.44-8.75,38.12s3.15,26.62,8.75,38.12h15.89c-6.6-11.18-10.39-24.21-10.39-38.12S44.99,11.25,51.59.08h-15.89Z" class="cls-102"/><path d="M35.81.08c-5.6,11.5-8.76,24.44-8.76,38.12s3.16,26.62,8.76,38.12h15.79c-6.6-11.18-10.39-24.21-10.39-38.12S45,11.25,51.6.08h-15.79Z" class="cls-32"/><path d="M35.92.08c-5.61,11.5-8.77,24.44-8.77,38.12s3.16,26.62,8.77,38.12h15.69c-6.6-11.18-10.39-24.21-10.39-38.12S45,11.25,51.61.08h-15.69Z" class="cls-43"/><path d="M36.02.08c-5.62,11.5-8.79,24.44-8.79,38.12s3.17,26.62,8.79,38.12h15.59c-6.6-11.18-10.39-24.21-10.39-38.12S45.01,11.25,51.62.08h-15.59Z" class="cls-200"/><path d="M36.13.08c-5.62,11.5-8.8,24.44-8.8,38.12s3.17,26.62,8.8,38.12h15.5c-6.6-11.18-10.4-24.21-10.4-38.12S45.02,11.25,51.63.08h-15.5Z" class="cls-93"/><path d="M36.24.08c-5.63,11.5-8.81,24.44-8.81,38.12s3.18,26.63,8.81,38.12h15.4c-6.6-11.18-10.4-24.21-10.4-38.12S45.03,11.25,51.64.08h-15.4Z" class="cls-81"/><path d="M36.35.08c-5.64,11.49-8.82,24.43-8.82,38.12s3.18,26.63,8.82,38.12h15.3c-6.6-11.18-10.4-24.21-10.4-38.12S45.04,11.25,51.65.08h-15.3Z" class="cls-230"/><path d="M36.46.08c-5.64,11.49-8.83,24.43-8.83,38.12s3.18,26.63,8.83,38.12h15.2c-6.6-11.18-10.4-24.21-10.4-38.12S45.05,11.25,51.66.08h-15.2Z" class="cls-76"/><path d="M36.57.08c-5.65,11.49-8.84,24.43-8.84,38.12s3.19,26.63,8.84,38.12h15.1c-6.61-11.18-10.4-24.21-10.4-38.12S45.06,11.25,51.67.08h-15.1Z" class="cls-54"/><path d="M36.67.08c-5.66,11.49-8.85,24.43-8.85,38.12s3.19,26.64,8.85,38.12h15.01c-6.61-11.18-10.4-24.21-10.4-38.12S45.07,11.24,51.68.08h-15Z" class="cls-91"/><path d="M36.78.08c-5.66,11.48-8.86,24.43-8.86,38.12s3.2,26.64,8.86,38.12h14.91c-6.61-11.18-10.4-24.21-10.4-38.12S45.08,11.24,51.69.08h-14.91Z" class="cls-148"/><path d="M36.89.08c-5.67,11.48-8.87,24.43-8.87,38.12s3.2,26.64,8.87,38.12h14.81c-6.61-11.18-10.41-24.21-10.41-38.12S45.09,11.24,51.7.08h-14.81Z" class="cls-101"/><path d="M37,.08c-5.68,11.48-8.88,24.42-8.88,38.12s3.21,26.64,8.88,38.12h14.71c-6.61-11.17-10.41-24.21-10.41-38.12S45.1,11.24,51.71.08h-14.71Z" class="cls-207"/><path d="M37.11.08c-5.68,11.48-8.89,24.42-8.89,38.12s3.21,26.64,8.89,38.12h14.61c-6.61-11.17-10.41-24.21-10.41-38.12S45.11,11.24,51.72.08h-14.61Z" class="cls-141"/><path d="M37.22.08c-5.69,11.48-8.9,24.42-8.9,38.12s3.21,26.65,8.9,38.12h14.52c-6.61-11.17-10.41-24.21-10.41-38.12S45.12,11.24,51.73.08h-14.51Z" class="cls-191"/><path d="M37.32.08c-5.7,11.47-8.92,24.42-8.92,38.12s3.22,26.65,8.92,38.12h14.42c-6.61-11.17-10.41-24.21-10.41-38.12S45.13,11.24,51.74.08h-14.42Z" class="cls-104"/><path d="M37.43.08c-5.7,11.47-8.93,24.42-8.93,38.12s3.22,26.65,8.93,38.12h14.32c-6.61-11.17-10.41-24.21-10.41-38.12S45.14,11.24,51.75.08h-14.32Z" class="cls-131"/><path d="M37.54.08c-5.71,11.47-8.94,24.42-8.94,38.12s3.23,26.65,8.94,38.12h14.22c-6.61-11.17-10.41-24.21-10.41-38.12S45.15,11.24,51.76.08h-14.22Z" class="cls-133"/><path d="M37.65.08c-5.72,11.47-8.95,24.42-8.95,38.12s3.23,26.65,8.95,38.12h14.12c-6.61-11.17-10.42-24.21-10.42-38.12S45.16,11.24,51.77.08h-14.12Z" class="cls-209"/><path d="M37.76.08c-5.72,11.46-8.96,24.41-8.96,38.12s3.23,26.66,8.96,38.12h14.03c-6.62-11.17-10.42-24.21-10.42-38.12S45.17,11.24,51.78.08h-14.03Z" class="cls-211"/><path d="M37.87.08c-5.73,11.46-8.97,24.41-8.97,38.12s3.24,26.66,8.97,38.12h13.93c-6.62-11.17-10.42-24.21-10.42-38.12S45.18,11.24,51.79.08h-13.93Z" class="cls-41"/><path d="M37.98.08c-5.74,11.46-8.98,24.41-8.98,38.12s3.24,26.66,8.98,38.12h13.83c-6.62-11.17-10.42-24.21-10.42-38.12S45.19,11.24,51.8.08h-13.83Z" class="cls-8"/><path d="M38.08.08c-5.74,11.46-8.99,24.41-8.99,38.12s3.25,26.66,8.99,38.12h13.73c-6.62-11.17-10.42-24.21-10.42-38.12S45.2,11.24,51.82.08h-13.73Z" class="cls-124"/><path d="M38.19.08c-5.75,11.46-9,24.41-9,38.12s3.25,26.67,9,38.12h13.63c-6.62-11.17-10.42-24.21-10.42-38.12S45.21,11.24,51.83.08h-13.63Z" class="cls-75"/><path d="M38.3.08c-5.76,11.45-9.01,24.41-9.01,38.12s3.26,26.67,9.01,38.12h13.54c-6.62-11.17-10.43-24.21-10.43-38.12S45.22,11.24,51.84.08h-13.54Z" class="cls-176"/><path d="M38.41.08c-5.76,11.45-9.02,24.4-9.02,38.12s3.26,26.67,9.02,38.12h13.44c-6.62-11.17-10.43-24.21-10.43-38.12S45.22,11.24,51.85.08h-13.44Z" class="cls-162"/><path d="M38.52.08c-5.77,11.45-9.03,24.4-9.03,38.12s3.26,26.67,9.03,38.12h13.34c-6.62-11.17-10.43-24.21-10.43-38.12S45.23,11.24,51.86.08h-13.34Z" class="cls-250"/><path d="M38.63.08c-5.78,11.45-9.04,24.4-9.04,38.12s3.27,26.67,9.04,38.12h13.24c-6.62-11.17-10.43-24.21-10.43-38.12S45.24,11.24,51.87.08h-13.24Z" class="cls-212"/><path d="M38.73.08c-5.78,11.44-9.06,24.4-9.06,38.12s3.27,26.68,9.06,38.12h13.14c-6.62-11.17-10.43-24.21-10.43-38.12S45.25,11.24,51.88.08h-13.14Z" class="cls-222"/><path d="M38.84.08c-5.79,11.44-9.07,24.4-9.07,38.12s3.28,26.68,9.07,38.12h13.05c-6.62-11.17-10.43-24.21-10.43-38.12S45.26,11.24,51.89.08h-13.04Z" class="cls-187"/><path d="M38.95.08c-5.8,11.44-9.08,24.4-9.08,38.12s3.28,26.68,9.08,38.12h12.95c-6.62-11.17-10.43-24.21-10.43-38.12S45.27,11.24,51.9.08h-12.95Z" class="cls-218"/><path d="M39.06.08c-5.8,11.44-9.09,24.39-9.09,38.12s3.29,26.68,9.09,38.12h12.85c-6.63-11.17-10.44-24.21-10.44-38.12S45.28,11.24,51.91.08h-12.85Z" class="cls-9"/><path d="M39.17.08c-5.81,11.44-9.1,24.39-9.1,38.12s3.29,26.68,9.1,38.12h12.75c-6.63-11.17-10.44-24.21-10.44-38.12S45.29,11.24,51.92.08h-12.75Z" class="cls-165"/><path d="M39.28.08c-5.82,11.43-9.11,24.39-9.11,38.12s3.29,26.69,9.11,38.12h12.65c-6.63-11.17-10.44-24.21-10.44-38.12S45.3,11.24,51.93.08h-12.65Z" class="cls-202"/><path d="M39.38.08c-5.82,11.43-9.12,24.39-9.12,38.12s3.3,26.69,9.12,38.12h12.56c-6.63-11.17-10.44-24.21-10.44-38.12S45.31,11.24,51.94.08h-12.56Z" class="cls-74"/><path d="M39.49.08c-5.83,11.43-9.13,24.39-9.13,38.12s3.3,26.69,9.13,38.12h12.46c-6.63-11.17-10.44-24.21-10.44-38.12S45.32,11.24,51.95.08h-12.46Z" class="cls-11"/><path d="M39.6.08c-5.84,11.43-9.14,24.39-9.14,38.12s3.31,26.69,9.14,38.12h12.36c-6.63-11.17-10.44-24.2-10.44-38.12S45.33,11.24,51.96.08h-12.36Z" class="cls-196"/><path d="M39.71.08c-5.84,11.42-9.15,24.39-9.15,38.12s3.31,26.7,9.15,38.12h12.26c-6.63-11.17-10.44-24.2-10.44-38.12S45.34,11.24,51.97.08h-12.26Z" class="cls-244"/><path d="M39.82.08c-5.85,11.42-9.16,24.38-9.16,38.12s3.32,26.7,9.16,38.12h12.17c-6.63-11.17-10.45-24.2-10.45-38.12S45.35,11.24,51.98.08h-12.16Z" class="cls-149"/><path d="M39.93.08c-5.86,11.42-9.17,24.38-9.17,38.12s3.32,26.7,9.17,38.12h12.07c-6.63-11.17-10.45-24.2-10.45-38.12S45.36,11.24,51.99.08h-12.07Z" class="cls-172"/><path d="M40.04.08c-5.86,11.42-9.19,24.38-9.19,38.12s3.32,26.7,9.19,38.12h11.97c-6.63-11.17-10.45-24.2-10.45-38.12S45.37,11.23,52,.08h-11.97Z" class="cls-197"/><path d="M40.14.08c-5.87,11.42-9.2,24.38-9.2,38.12s3.33,26.7,9.2,38.12h11.87c-6.63-11.17-10.45-24.2-10.45-38.12S45.38,11.23,52.01.08h-11.87Z" class="cls-160"/><path d="M40.25.08c-5.88,11.41-9.21,24.38-9.21,38.12s3.33,26.71,9.21,38.12h11.77c-6.64-11.17-10.45-24.2-10.45-38.12S45.39,11.23,52.02.08h-11.77Z" class="cls-63"/><path d="M40.36.08c-5.88,11.41-9.22,24.38-9.22,38.12s3.33,26.71,9.22,38.12h11.68c-6.64-11.16-10.45-24.2-10.45-38.12S45.4,11.23,52.03.08h-11.67Z" class="cls-232"/><path d="M40.47.08c-5.89,11.41-9.23,24.37-9.23,38.12s3.34,26.71,9.23,38.12h11.58c-6.64-11.16-10.45-24.2-10.45-38.12S45.41,11.23,52.04.08h-11.58Z" class="cls-199"/><path d="M40.58.08c-5.9,11.41-9.24,24.37-9.24,38.12s3.34,26.71,9.24,38.12h11.48c-6.64-11.16-10.46-24.2-10.46-38.12S45.42,11.23,52.06.08h-11.48Z" class="cls-140"/><path d="M40.69.08c-5.9,11.41-9.25,24.37-9.25,38.12s3.35,26.72,9.25,38.12h11.38c-6.64-11.16-10.46-24.2-10.46-38.12S45.43,11.23,52.07.08h-11.38Z" class="cls-3"/><path d="M40.79.08c-5.91,11.4-9.26,24.37-9.26,38.12s3.35,26.72,9.26,38.12h11.28c-6.64-11.16-10.46-24.2-10.46-38.12S45.43,11.23,52.08.08h-11.28Z" class="cls-19"/><path d="M40.9.08c-5.92,11.4-9.27,24.37-9.27,38.12s3.36,26.72,9.27,38.12h11.19c-6.64-11.16-10.46-24.2-10.46-38.12S45.44,11.23,52.09.08h-11.18Z" class="cls-73"/><path d="M41.01.08c-5.92,11.4-9.28,24.37-9.28,38.12s3.36,26.72,9.28,38.12h11.09c-6.64-11.16-10.46-24.2-10.46-38.12S45.45,11.23,52.1.08h-11.09Z" class="cls-28"/><path d="M41.12.08c-5.93,11.4-9.29,24.37-9.29,38.12s3.36,26.72,9.29,38.12h10.99c-6.64-11.16-10.46-24.2-10.46-38.12S45.46,11.23,52.11.08h-10.99Z" class="cls-229"/><path d="M41.23.08c-5.94,11.39-9.3,24.36-9.3,38.12s3.37,26.73,9.3,38.12h10.89c-6.64-11.16-10.46-24.2-10.46-38.12S45.47,11.23,52.12.08h-10.89Z" class="cls-144"/><path d="M41.34.08c-5.94,11.39-9.32,24.36-9.32,38.12s3.37,26.73,9.32,38.12h10.79c-6.64-11.16-10.47-24.2-10.47-38.12S45.48,11.23,52.13.08h-10.79Z" class="cls-119"/><path d="M41.44.08c-5.95,11.39-9.33,24.36-9.33,38.12s3.38,26.73,9.33,38.12h10.7c-6.64-11.16-10.47-24.2-10.47-38.12S45.49,11.23,52.14.08h-10.69Z" class="cls-194"/><path d="M41.55.08c-5.96,11.39-9.34,24.36-9.34,38.12s3.38,26.73,9.34,38.12h10.6c-6.65-11.16-10.47-24.2-10.47-38.12S45.5,11.23,52.15.08h-10.6Z" class="cls-183"/><path d="M41.66.08c-5.96,11.39-9.35,24.36-9.35,38.12s3.39,26.74,9.35,38.12h10.5c-6.65-11.16-10.47-24.2-10.47-38.12S45.51,11.23,52.16.08h-10.5Z" class="cls-109"/><path d="M41.77.08c-5.97,11.38-9.36,24.36-9.36,38.12s3.39,26.74,9.36,38.12h10.4c-6.65-11.16-10.47-24.2-10.47-38.12S45.52,11.23,52.17.08h-10.4Z" class="cls-80"/><path d="M41.88.08c-5.98,11.38-9.37,24.35-9.37,38.12s3.39,26.74,9.37,38.12h10.3c-6.65-11.16-10.47-24.2-10.47-38.12S45.53,11.23,52.18.08h-10.3Z" class="cls-216"/><path d="M41.99.08c-5.98,11.38-9.38,24.35-9.38,38.12s3.4,26.74,9.38,38.12h10.21c-6.65-11.16-10.47-24.2-10.47-38.12S45.54,11.23,52.19.08h-10.2Z" class="cls-223"/><path d="M42.1.08c-5.99,11.38-9.39,24.35-9.39,38.12s3.4,26.74,9.39,38.12h10.11c-6.65-11.16-10.48-24.2-10.48-38.12S45.55,11.23,52.2.08h-10.11Z" class="cls-82"/><path d="M42.2.08c-6,11.37-9.4,24.35-9.4,38.12s3.41,26.75,9.4,38.12h10.01c-6.65-11.16-10.48-24.2-10.48-38.12S45.56,11.23,52.21.08h-10.01Z" class="cls-70"/><path d="M42.31.08c-6,11.37-9.41,24.35-9.41,38.12s3.41,26.75,9.41,38.12h9.91c-6.65-11.16-10.48-24.2-10.48-38.12S45.57,11.23,52.22.08h-9.91Z" class="cls-214"/><path d="M42.42.08c-6.01,11.37-9.42,24.35-9.42,38.12s3.41,26.75,9.42,38.12h9.81c-6.65-11.16-10.48-24.2-10.48-38.12S45.58,11.23,52.23.08h-9.81Z" class="cls-84"/><path d="M42.53.08c-6.02,11.37-9.43,24.34-9.43,38.12s3.42,26.75,9.43,38.12h9.72c-6.65-11.16-10.48-24.2-10.48-38.12S45.59,11.23,52.24.08h-9.71Z" class="cls-94"/><path d="M42.64.08c-6.02,11.37-9.45,24.34-9.45,38.12s3.42,26.75,9.45,38.12h9.62c-6.65-11.16-10.48-24.2-10.48-38.12S45.6,11.23,52.25.08h-9.62Z" class="cls-66"/><path d="M42.75.08c-6.03,11.36-9.46,24.34-9.46,38.12s3.43,26.76,9.46,38.12h9.52c-6.66-11.16-10.48-24.2-10.48-38.12S45.61,11.23,52.26.08h-9.52Z" class="cls-193"/><path d="M42.85.08c-6.04,11.36-9.47,24.34-9.47,38.12s3.43,26.76,9.47,38.12h9.42c-6.66-11.16-10.49-24.2-10.49-38.12S45.62,11.23,52.27.08h-9.42Z" class="cls-175"/><path d="M42.96.08c-6.04,11.36-9.48,24.34-9.48,38.12s3.44,26.76,9.48,38.12h9.32c-6.66-11.16-10.49-24.2-10.49-38.12S45.63,11.23,52.29.08h-9.32Z" class="cls-52"/><path d="M43.07.08c-6.05,11.36-9.49,24.34-9.49,38.12s3.44,26.76,9.49,38.12h9.23c-6.66-11.16-10.49-24.2-10.49-38.12S45.64,11.23,52.3.08h-9.23Z" class="cls-115"/><path d="M43.18.08c-6.06,11.35-9.5,24.33-9.5,38.12s3.44,26.76,9.5,38.12h9.13c-6.66-11.16-10.49-24.2-10.49-38.12S45.64,11.23,52.31.08h-9.13Z" class="cls-157"/><path d="M43.29.08c-6.06,11.35-9.51,24.33-9.51,38.12s3.45,26.77,9.51,38.12h9.03c-6.66-11.16-10.49-24.2-10.49-38.12S45.65,11.23,52.32.08h-9.03Z" class="cls-33"/><path d="M43.4.08c-6.07,11.35-9.52,24.33-9.52,38.12s3.45,26.77,9.52,38.12h8.93c-6.66-11.16-10.49-24.2-10.49-38.12S45.66,11.23,52.33.08h-8.93Z" class="cls-231"/><path d="M43.5.08c-6.08,11.35-9.53,24.33-9.53,38.12s3.46,26.77,9.53,38.12h8.83c-6.66-11.16-10.49-24.2-10.49-38.12S45.67,11.22,52.34.08h-8.83Z" class="cls-239"/><path d="M43.61.08c-6.08,11.35-9.54,24.33-9.54,38.12s3.46,26.77,9.54,38.12h8.74c-6.66-11.16-10.5-24.2-10.5-38.12S45.68,11.22,52.35.08h-8.73Z" class="cls-20"/><path d="M43.72.08c-6.09,11.34-9.55,24.33-9.55,38.12s3.46,26.78,9.55,38.12h8.64c-6.66-11.16-10.5-24.2-10.5-38.12S45.69,11.22,52.36.08h-8.64Z" class="cls-161"/><path d="M43.83.08c-6.1,11.34-9.56,24.33-9.56,38.12s3.47,26.78,9.56,38.12h8.54c-6.66-11.16-10.5-24.2-10.5-38.12S45.7,11.22,52.37.08h-8.54Z" class="cls-184"/><path d="M43.94.08c-6.1,11.34-9.58,24.32-9.58,38.12s3.47,26.78,9.58,38.12h8.44c-6.66-11.15-10.5-24.2-10.5-38.12S45.71,11.22,52.38.08h-8.44Z" class="cls-103"/><path d="M44.05.08c-6.11,11.34-9.59,24.32-9.59,38.12s3.48,26.78,9.59,38.12h8.34c-6.67-11.15-10.5-24.2-10.5-38.12S45.72,11.22,52.39.08h-8.34Z" class="cls-92"/><path d="M44.16.08c-6.11,11.33-9.6,24.32-9.6,38.12s3.48,26.79,9.6,38.12h8.25c-6.67-11.15-10.5-24.2-10.5-38.12S45.73,11.22,52.4.08h-8.24Z" class="cls-241"/><path d="M44.26.08c-6.12,11.33-9.61,24.32-9.61,38.12s3.49,26.79,9.61,38.12h8.15c-6.67-11.15-10.5-24.2-10.5-38.12S45.74,11.22,52.41.08h-8.15Z" class="cls-132"/><path d="M44.37.08c-6.13,11.33-9.62,24.32-9.62,38.12s3.49,26.79,9.62,38.12h8.05c-6.67-11.15-10.51-24.19-10.51-38.12S45.75,11.22,52.42.08h-8.05Z" class="cls-36"/><path d="M44.48.08c-6.14,11.33-9.63,24.32-9.63,38.12s3.49,26.79,9.63,38.12h7.95c-6.67-11.15-10.51-24.19-10.51-38.12S45.76,11.22,52.43.08h-7.95Z" class="cls-169"/><path d="M44.59.08c-6.14,11.33-9.64,24.31-9.64,38.12s3.5,26.79,9.64,38.12h7.85c-6.67-11.15-10.51-24.19-10.51-38.12S45.77,11.22,52.44.08h-7.85Z" class="cls-174"/><path d="M44.7.08c-6.15,11.32-9.65,24.31-9.65,38.12s3.5,26.8,9.65,38.12h7.76c-6.67-11.15-10.51-24.19-10.51-38.12S45.78,11.22,52.45.08h-7.76Z" class="cls-78"/><path d="M44.81.08c-6.16,11.32-9.66,24.31-9.66,38.12s3.51,26.8,9.66,38.12h7.66c-6.67-11.15-10.51-24.19-10.51-38.12S45.79,11.22,52.46.08h-7.66Z" class="cls-237"/><path d="M44.91.08c-6.16,11.32-9.67,24.31-9.67,38.12s3.51,26.8,9.67,38.12h7.56c-6.67-11.15-10.51-24.19-10.51-38.12S45.8,11.22,52.47.08h-7.56Z" class="cls-188"/><path d="M45.02.08c-6.17,11.32-9.68,24.31-9.68,38.12s3.52,26.8,9.68,38.12h7.46c-6.67-11.15-10.52-24.19-10.52-38.12S45.81,11.22,52.48.08h-7.46Z" class="cls-55"/><path d="M45.13.08c-6.17,11.32-9.69,24.31-9.69,38.12s3.52,26.8,9.69,38.12h7.36c-6.67-11.15-10.52-24.19-10.52-38.12S45.82,11.22,52.49.08h-7.36Z" class="cls-44"/><path d="M45.24.08c-6.18,11.31-9.71,24.3-9.71,38.12s3.52,26.81,9.71,38.12h7.27c-6.68-11.15-10.52-24.19-10.52-38.12S45.83,11.22,52.5.08h-7.27Z" class="cls-118"/><path d="M45.35.08c-6.19,11.31-9.72,24.3-9.72,38.12s3.53,26.81,9.72,38.12h7.17c-6.68-11.15-10.52-24.19-10.52-38.12S45.84,11.22,52.52.08h-7.17Z" class="cls-203"/><path d="M45.46.08c-6.2,11.31-9.73,24.3-9.73,38.12s3.53,26.81,9.73,38.12h7.07c-6.68-11.15-10.52-24.19-10.52-38.12S45.85,11.22,52.53.08h-7.07Z" class="cls-247"/><path d="M45.57.08c-6.2,11.31-9.74,24.3-9.74,38.12s3.54,26.81,9.74,38.12h6.97c-6.68-11.15-10.52-24.19-10.52-38.12S45.86,11.22,52.54.08h-6.97Z" class="cls-127"/><path d="M45.67.08c-6.21,11.3-9.75,24.3-9.75,38.12s3.54,26.82,9.75,38.12h6.87c-6.68-11.15-10.52-24.19-10.52-38.12S45.86,11.22,52.55.08h-6.87Z" class="cls-171"/><path d="M45.78.08c-6.21,11.3-9.76,24.3-9.76,38.12s3.54,26.82,9.76,38.12h6.78c-6.68-11.15-10.52-24.19-10.52-38.12S45.87,11.22,52.56.08h-6.77Z" class="cls-156"/><path d="M45.89.08c-6.22,11.3-9.77,24.29-9.77,38.12s3.55,26.82,9.77,38.12h6.68c-6.68-11.15-10.53-24.19-10.53-38.12S45.88,11.22,52.57.08h-6.68Z" class="cls-179"/><path d="M46,.08c-6.23,11.3-9.78,24.29-9.78,38.12s3.55,26.82,9.78,38.12h6.58c-6.68-11.15-10.53-24.19-10.53-38.12S45.89,11.22,52.58.08h-6.58Z" class="cls-163"/><path d="M46.11.08c-6.23,11.3-9.79,24.29-9.79,38.12s3.56,26.82,9.79,38.12h6.48c-6.68-11.15-10.53-24.19-10.53-38.12S45.9,11.22,52.59.08h-6.48Z" class="cls-62"/><path d="M46.22.08c-6.24,11.29-9.8,24.29-9.8,38.12s3.56,26.83,9.8,38.12h6.38c-6.68-11.15-10.53-24.19-10.53-38.12S45.91,11.22,52.6.08h-6.38Z" class="cls-16"/><path d="M46.32.08c-6.25,11.29-9.81,24.29-9.81,38.12s3.57,26.83,9.81,38.12h6.29c-6.68-11.15-10.53-24.19-10.53-38.12S45.92,11.22,52.61.08h-6.29Z" class="cls-49"/><path d="M46.43.08c-6.25,11.29-9.82,24.29-9.82,38.12s3.57,26.83,9.82,38.12h6.19c-6.68-11.15-10.53-24.19-10.53-38.12S45.93,11.22,52.62.08h-6.19Z" class="cls-15"/><path d="M46.54.08c-6.26,11.29-9.83,24.29-9.83,38.12s3.57,26.83,9.83,38.12h6.09c-6.69-11.15-10.54-24.19-10.54-38.12S45.94,11.22,52.63.08h-6.09Z" class="cls-152"/><path d="M46.65.08c-6.27,11.29-9.85,24.28-9.85,38.12s3.58,26.83,9.85,38.12h5.99c-6.69-11.15-10.54-24.19-10.54-38.12S45.95,11.22,52.64.08h-5.99Z" class="cls-192"/><path d="M46.76.08c-6.27,11.28-9.86,24.28-9.86,38.12s3.58,26.84,9.86,38.12h5.89c-6.69-11.15-10.54-24.19-10.54-38.12S45.96,11.21,52.65.08h-5.89Z" class="cls-95"/><path d="M46.87.08c-6.28,11.28-9.87,24.28-9.87,38.12s3.59,26.84,9.87,38.12h5.8c-6.69-11.15-10.54-24.19-10.54-38.12S45.97,11.21,52.66.08h-5.8Z" class="cls-100"/><path d="M46.97.08c-6.29,11.28-9.88,24.28-9.88,38.12s3.59,26.84,9.88,38.12h5.7c-6.69-11.15-10.54-24.19-10.54-38.12S45.98,11.21,52.67.08h-5.7Z" class="cls-108"/><path d="M47.08.08c-6.29,11.28-9.89,24.28-9.89,38.12s3.59,26.84,9.89,38.12h5.6c-6.69-11.15-10.54-24.19-10.54-38.12S45.99,11.21,52.68.08h-5.6Z" class="cls-236"/><path d="M47.19.08c-6.3,11.27-9.9,24.28-9.9,38.12s3.6,26.85,9.9,38.12h5.5c-6.69-11.15-10.54-24.19-10.54-38.12S46,11.21,52.69.08h-5.5Z" class="cls-164"/><path d="M47.3.08c-6.31,11.27-9.91,24.27-9.91,38.12s3.6,26.85,9.91,38.12h5.4c-6.69-11.14-10.55-24.19-10.55-38.12S46.01,11.21,52.7.08h-5.4Z" class="cls-129"/><path d="M47.41.08c-6.31,11.27-9.92,24.27-9.92,38.12s3.61,26.85,9.92,38.12h5.31c-6.69-11.14-10.55-24.19-10.55-38.12S46.02,11.21,52.71.08h-5.31Z" class="cls-87"/><path d="M47.52.08c-6.32,11.27-9.93,24.27-9.93,38.12s3.61,26.85,9.93,38.12h5.21c-6.69-11.14-10.55-24.19-10.55-38.12S46.03,11.21,52.72.08h-5.21Z" class="cls-1"/><path d="M47.62.08c-6.33,11.27-9.94,24.27-9.94,38.12s3.62,26.85,9.94,38.12h5.11c-6.69-11.14-10.55-24.19-10.55-38.12S46.04,11.21,52.73.08h-5.11Z" class="cls-228"/><path d="M47.73.08c-6.33,11.26-9.95,24.27-9.95,38.12s3.62,26.86,9.95,38.12h5.01c-6.7-11.14-10.55-24.19-10.55-38.12S46.05,11.21,52.75.08h-5.01Z" class="cls-201"/><path d="M47.84.08c-6.34,11.26-9.97,24.27-9.97,38.12s3.62,26.86,9.97,38.12h4.91c-6.7-11.14-10.55-24.19-10.55-38.12S46.06,11.21,52.76.08h-4.91Z" class="cls-146"/><path d="M47.95.08c-6.35,11.26-9.98,24.27-9.98,38.12s3.63,26.86,9.98,38.12h4.82c-6.7-11.14-10.55-24.19-10.55-38.12S46.07,11.21,52.77.08h-4.82Z" class="cls-227"/><path d="M48.06.08c-6.35,11.26-9.99,24.26-9.99,38.12s3.63,26.86,9.99,38.12h4.72c-6.7-11.14-10.56-24.19-10.56-38.12S46.07,11.21,52.78.08h-4.72Z" class="cls-64"/><path d="M48.17.08c-6.36,11.25-10,24.26-10,38.12s3.64,26.86,10,38.12h4.62c-6.7-11.14-10.56-24.19-10.56-38.12S46.08,11.21,52.79.08h-4.62Z" class="cls-126"/><path d="M48.28.08c-6.37,11.25-10.01,24.26-10.01,38.12s3.64,26.87,10.01,38.12h4.52c-6.7-11.14-10.56-24.19-10.56-38.12S46.09,11.21,52.8.08h-4.52Z" class="cls-181"/><path d="M48.38.08c-6.37,11.25-10.02,24.26-10.02,38.12s3.64,26.87,10.02,38.12h4.42c-6.7-11.14-10.56-24.19-10.56-38.12S46.1,11.21,52.81.08h-4.42Z" class="cls-249"/><path d="M48.49.08c-6.38,11.25-10.03,24.26-10.03,38.12s3.65,26.87,10.03,38.12h4.33c-6.7-11.14-10.56-24.19-10.56-38.12S46.11,11.21,52.82.08h-4.33Z" class="cls-147"/><path d="M48.6.08c-6.39,11.25-10.04,24.26-10.04,38.12s3.65,26.87,10.04,38.12h4.23c-6.7-11.14-10.56-24.19-10.56-38.12S46.12,11.21,52.83.08h-4.23Z" class="cls-22"/><path d="M48.71.08c-6.39,11.24-10.05,24.25-10.05,38.12s3.66,26.88,10.05,38.12h4.13c-6.7-11.14-10.56-24.19-10.56-38.12S46.13,11.21,52.84.08h-4.13Z" class="cls-121"/><path d="M48.82.08c-6.4,11.24-10.06,24.25-10.06,38.12s3.66,26.88,10.06,38.12h4.03c-6.7-11.14-10.57-24.19-10.57-38.12S46.14,11.21,52.85.08h-4.03Z" class="cls-25"/><path d="M48.93.08c-6.41,11.24-10.07,24.25-10.07,38.12s3.67,26.88,10.07,38.12h3.93c-6.7-11.14-10.57-24.19-10.57-38.12S46.15,11.21,52.86.08h-3.93Z" class="cls-51"/><path d="M49.03.08c-6.41,11.24-10.08,24.25-10.08,38.12s3.67,26.88,10.08,38.12h3.84c-6.71-11.14-10.57-24.19-10.57-38.12S46.16,11.21,52.87.08h-3.84Z" class="cls-47"/><path d="M49.14.08c-6.42,11.23-10.1,24.25-10.1,38.12s3.67,26.88,10.1,38.12h3.74c-6.71-11.14-10.57-24.19-10.57-38.12S46.17,11.21,52.88.08h-3.74Z" class="cls-170"/><path d="M49.25.08c-6.43,11.23-10.11,24.25-10.11,38.12s3.68,26.89,10.11,38.12h3.64c-6.71-11.14-10.57-24.18-10.57-38.12S46.18,11.21,52.89.08h-3.64Z" class="cls-153"/><path d="M49.36.08c-6.43,11.23-10.12,24.24-10.12,38.12s3.68,26.89,10.12,38.12h3.54c-6.71-11.14-10.57-24.18-10.57-38.12S46.19,11.21,52.9.08h-3.54Z" class="cls-246"/><path d="M49.47.08c-6.44,11.23-10.13,24.24-10.13,38.12s3.69,26.89,10.13,38.12h3.44c-6.71-11.14-10.57-24.18-10.57-38.12S46.2,11.21,52.91.08h-3.44Z" class="cls-35"/><path d="M49.58.08c-6.45,11.23-10.14,24.24-10.14,38.12s3.69,26.89,10.14,38.12h3.35c-6.71-11.14-10.58-24.18-10.58-38.12S46.21,11.21,52.92.08h-3.35Z" class="cls-23"/><path d="M49.69.08c-6.45,11.22-10.15,24.24-10.15,38.12s3.7,26.9,10.15,38.12h3.25c-6.71-11.14-10.58-24.18-10.58-38.12S46.22,11.21,52.93.08h-3.25Z" class="cls-71"/><path d="M49.79.08c-6.46,11.22-10.16,24.24-10.16,38.12s3.7,26.9,10.16,38.12h3.15c-6.71-11.14-10.58-24.18-10.58-38.12S46.23,11.21,52.94.08h-3.15Z" class="cls-158"/><path d="M49.9.08c-6.47,11.22-10.17,24.24-10.17,38.12s3.7,26.9,10.17,38.12h3.05c-6.71-11.14-10.58-24.18-10.58-38.12S46.24,11.21,52.95.08h-3.05Z" class="cls-206"/><path d="M50.01.08c-6.47,11.22-10.18,24.23-10.18,38.12s3.71,26.9,10.18,38.12h2.95c-6.71-11.14-10.58-24.18-10.58-38.12S46.25,11.21,52.96.08h-2.95Z" class="cls-10"/><path d="M50.12.08c-6.48,11.21-10.19,24.23-10.19,38.12s3.71,26.9,10.19,38.12h2.86c-6.71-11.14-10.58-24.18-10.58-38.12S46.26,11.2,52.98.08h-2.86Z" class="cls-29"/><path d="M50.23.08c-6.49,11.21-10.2,24.23-10.2,38.12s3.72,26.91,10.2,38.12h2.76c-6.72-11.14-10.59-24.18-10.59-38.12S46.27,11.2,52.99.08h-2.76Z" class="cls-31"/><path d="M40.12,38.2c0,13.89,3.72,26.91,10.21,38.12h2.66c-6.72-11.14-10.59-24.18-10.59-38.12S46.27,11.2,53,.08h-2.66c-6.49,11.21-10.21,24.23-10.21,38.12Z" class="cls-58"/></g></g><g><path d="M73.33,46.61c2.88-.01,5.35-.48,6.85-1.47,1.92-1.26,3.25-3.45,4.57-7.57,1.18-3.67,1.68-6.32.42-7.75-.84-.96-2.85-1.42-5.45-1.42h-.34s-1.1-.02-2.2.11l-5.44,17.01s-.29,1.09,1.01,1.09h.58M71.36,27.94c-.12-.39-1.11-2.38-1.11-2.38h10.32c3.46,0,7.7.31,9.79,2.7,1.69,1.92,1.84,4.94.46,9.24-3.57,11.12-11.36,12.04-19.49,12.04h-6.83l6.85-21.61Z" class="cls-58"/><path d="M101.3,46.61h10.91s-.94,2.93-.94,2.93h-18.18l6.85-21.61c-.11-.39-1.09-2.39-1.09-2.39h19.33l-.94,2.93h-11.48l-2.27,7.1h8.01l-.94,2.93h-8.01l-2.21,6.94s-.31,1.13.96,1.15Z" class="cls-58"/><path d="M120,49.55l5.5-17.65,6.64,17.65h5.15l7.71-23.99h-4.16l-5.26,16.8-.08-.2h0l-6.18-16.6h-7.87s.98,1.99,1.09,2.38l-6.85,21.61h4.32Z" class="cls-58"/><path d="M165.29,29.57c-.94-.43-3.2-1.41-6.41-1.44-.92-.02-3.15.25-3.9,2.58-.64,1.97,1.49,3.03,3.95,4.25,3.15,1.57,6.72,3.36,5.34,7.66-1.49,4.64-6.34,7.4-13.28,7.3-5.06-.08-7.54-1.01-7.54-1.01l1.42-4.43,1.02.58c1.01.58,3.68,1.93,6.68,1.93,1,0,2.42-.19,3.56-.89.82-.5,1.39-1.33,1.73-2.37.69-2.14-1.5-3.25-4.02-4.53-3.08-1.56-6.57-3.33-5.22-7.51.56-1.73,1.73-3.22,3.4-4.32,2.17-1.43,4.63-2.16,8.58-2.17,2.77-.02,5.46.35,6.59.64l.42.12-.16.51-.8,2.49-.34,1.08-1.01-.47Z" class="cls-58"/><path d="M178.56,47.08c1.5,0,2.78-.33,3.87-1.08,2.5-1.7,3.9-5.21,4.91-8.36,1.1-3.44,1.92-6.85.44-8.54-.63-.72-1.65-1.07-3.1-1.07-5.26,0-7.48,4.62-9.08,9.61-.86,2.7-1.83,6.49-.23,8.33.67.75,1.71,1.11,3.19,1.11M169.5,37.64c1.57-4.9,3.72-8.11,6.77-10.11,2.51-1.65,5.58-2.46,9.37-2.46s6.09.79,7.52,2.42c1.78,2.02,1.88,5.25.3,10.15-1.71,5.33-5.22,12.4-15.85,12.4-3.77,0-6.32-.81-7.78-2.47-1.77-2.01-1.88-5.16-.34-9.93Z" class="cls-58"/></g></svg>