<?xml version="1.0" encoding="UTF-8"?>
<svg id="Layer_1" data-name="Layer 1" xmlns="http://www.w3.org/2000/svg" viewBox="0 0 682.5 229.25">
  <defs>
    <style>
      .cls-1 {
        fill: #53585b;
      }

      .cls-2 {
        fill: #ec2227;
      }

      .cls-3 {
        fill: none;
        stroke: #939598;
        stroke-linecap: round;
        stroke-linejoin: round;
        stroke-width: 1.94px;
      }
    </style>
  </defs>
  <path class="cls-3" d="M364.44,29.39h0"/>
  <g>
    <path class="cls-1" d="M651.57,228.68h3.71v-27.71l21.82,27.71h3.05v-33.79h-3.71v27.08l-21.29-27.08h-3.58v33.79ZM616.19,225.73c-7.72,0-13.32-6.27-13.32-13.95v-.1c0-7.68,5.5-13.85,13.23-13.85s13.33,6.27,13.33,13.95v.09c0,7.68-5.5,13.86-13.23,13.86M616.09,229.25c10.28,0,17.28-8.16,17.28-17.47q.05-.05,0-.1c0-9.32-6.9-17.37-17.18-17.37s-17.28,8.16-17.28,17.47v.09c0,9.32,6.9,17.38,17.18,17.38M576.56,228.68h3.81v-33.79h-3.81v33.79ZM543.73,228.68h3.86v-30.27h11.34v-3.52h-26.55v3.52h11.34v30.27ZM501.75,225.73c-7.72,0-13.32-6.27-13.32-13.95v-.1c0-7.68,5.5-13.85,13.22-13.85s13.32,6.27,13.32,13.95v.09c0,7.68-5.49,13.86-13.22,13.86M501.65,229.25c10.29,0,17.28-8.16,17.28-17.47q.05-.05,0-.1c0-9.32-6.9-17.37-17.19-17.37s-17.28,8.16-17.28,17.47v.09c0,9.32,6.91,17.38,17.18,17.38M435.86,228.68h3.71v-27.32l12.31,18.05h.19l12.31-18.1v27.37h3.81v-33.79h-3.86l-12.31,18.44-12.31-18.44h-3.86v33.79ZM378.95,229.25c5.7,0,10.43-2.36,13.56-5.16v-13.47h-13.95v3.43h10.28v8.4c-2.32,1.88-5.89,3.37-9.75,3.37-8.21,0-13.37-5.98-13.37-14.04v-.1c0-7.52,5.36-13.85,12.84-13.85,4.78,0,7.68,1.59,10.28,3.86l2.47-2.9c-3.39-2.85-6.91-4.49-12.6-4.49-10.14,0-16.94,8.21-16.94,17.47v.09c0,9.66,6.57,17.38,17.18,17.38M315,228.68h3.71v-27.71l21.82,27.71h3.04v-33.79h-3.71v27.08l-21.29-27.08h-3.57v33.79ZM291.15,228.68h3.81v-33.79h-3.81v33.79ZM260.5,229.25c6.13,0,9.99-2.36,13.51-5.94l-2.51-2.46c-3.23,3.08-6.27,4.87-10.91,4.87-7.43,0-13.08-6.13-13.08-13.95v-.1c0-7.77,5.6-13.85,13.08-13.85,4.59,0,7.77,1.93,10.62,4.63l2.6-2.8c-3.37-3.18-7.05-5.35-13.18-5.35-9.94,0-17.09,7.91-17.09,17.47v.09c0,9.71,7.19,17.38,16.94,17.38M196.78,228.68h3.71v-27.71l21.82,27.71h3.04v-33.79h-3.72v27.08l-21.29-27.08h-3.57v33.79ZM155.03,216.31l7.72-17.23,7.68,17.23h-15.4ZM145.61,228.68h3.92l4-8.93h18.39l3.96,8.93h4.11l-15.4-34.03h-3.57l-15.41,34.03ZM118.64,228.91h3.38l14.53-34.03h-4.1l-12.07,29.11-12.02-29.11h-4.24l14.53,34.03ZM65.1,225.15v-26.74h7.91c8.55,0,14,5.89,14,13.37v.09c0,7.49-5.45,13.28-14,13.28h-7.91ZM61.29,228.68h11.73c10.62,0,17.96-7.39,17.96-16.9v-.1c0-9.51-7.33-16.8-17.96-16.8h-11.73v33.79ZM19.53,216.31l7.72-17.23,7.68,17.23h-15.4ZM10.12,228.68h3.91l4.01-8.93h18.39l3.96,8.93h4.11l-15.4-34.03h-3.57l-15.4,34.03Z"/>
    <path class="cls-2" d="M219.77,104.39l-15.85.47c-15.14.47-21.9,5.6-21.9,14.91s6.29,15.38,17.95,15.38c9.78,0,16.08-3.73,19.81-6.99v-23.77ZM226.06,154.95l-3.96-9.78c-7.22,6.52-17.24,12.11-31.92,12.11-20.27,0-36.12-13.74-36.12-35.42,0-22.83,17.95-35.18,46.14-36.11l19.57-.7v-2.8c0-13.29-9.32-18.65-20.97-18.65s-30.45,6.9-37.43,11.09l-.09-20.41c14.69-9.79,28.43-12.11,43.11-12.11,27.27,0,43.81,11.19,43.81,40.08v43.57c0,15.85.46,24,2.1,29.12h-24.23Z"/>
    <path class="cls-2" d="M478.63,63.14c-13.52,0-21.67,12.12-21.67,24.23h42.87c-.46-11.87-6.99-24.23-21.2-24.23M457.66,107.18c.46,16.31,13.98,27.74,31,27.74,10.48,0,25.85-5.28,35.41-10.41v20.65c-12.34,8.63-27.01,12.12-40.06,12.12-38.46,0-54.76-27.97-54.76-57.56,0-31.46,18.64-57.55,50.1-57.55,29.83,0,49.03,22.6,49.03,56.86v8.15h-70.71Z"/>
    <path class="cls-2" d="M342.65,44.19c-2.94-1.01-6.06-1.67-9.09-1.67-10.48,0-19.11,3.85-30.52,13.87l-2.34-11.65h-24.22v110.21h27.96l-.22-76.66c7.45-6.76,14.81-10.99,21.21-12.28,5.76-1.17,11.68-1.82,17.22-.17v-21.65Z"/>
    <path class="cls-2" d="M424.83,44.19c-2.94-1.01-6.05-1.67-9.09-1.67-10.48,0-19.11,3.85-30.52,13.87l-2.34-11.65h-24.23v110.21h27.96l-.22-76.66c7.45-6.76,14.8-10.99,21.21-12.28,5.76-1.17,11.67-1.82,17.22-.17v-21.65Z"/>
    <path class="cls-2" d="M682.5,66.44v-20.97h-21.33V14.13l-27.96-.47v31.81h-44.74V14.13l-27.97-.47v31.81h-21.15v20.97h21.15v58.69c0,21.65,21.1,32.94,47.76,32.94v-24.16c-11.6,0-19.8-5.5-19.8-14.11v-53.36h44.74v58.69c0,21.65,20.73,32.94,47.4,32.94v-24.16c-11.61,0-19.44-5.5-19.44-14.11v-53.36h21.33Z"/>
    <path class="cls-2" d="M132.04,93.72h0v-21.15h-54.53l27.74,24.86v33.34c-7.01,2.39-13.96,3.22-19.92,3.22-33.55,0-54.57-24.24-54.57-56.4,0-29.59,17.98-54.28,58.29-54.28,16.08,0,31.34,4.81,42.98,10.87V8.17C120.85,4.2,105.83,0,86.25,0,34.98,0,0,34.25,0,79.92s30.33,77.37,78.32,77.37c21.53,0,40.04-5.14,53.71-11.54v-.16h0v-51.87Z"/>
  </g>
</svg>