<svg xmlns="http://www.w3.org/2000/svg" id="Layer_1" data-name="Layer 1" viewBox="0 0 546.65 203.97"><defs><style>.cls-1{stroke-width:1.08px}.cls-1,.cls-2{stroke:#000;stroke-miterlimit:3.86}.cls-3{fill:#231f20}.cls-4{fill:#fff}.cls-2{fill:none;stroke-width:2.26px}</style></defs><g><path d="M58.02,4.2h411.33c22.18,0,40.16,17.98,40.16,40.17v55.69c0,22.18-17.98,40.16-40.16,40.16H58.02c-22.18,0-40.16-17.98-40.16-40.16v-55.69c0-22.19,17.98-40.17,40.16-40.17h0Z" class="cls-4"/><path d="M58.02,4.2h411.33c22.18,0,40.16,17.98,40.16,40.17v55.69c0,22.18-17.98,40.16-40.16,40.16H58.02c-22.18,0-40.16-17.98-40.16-40.16v-55.69c0-22.19,17.98-40.17,40.16-40.17h0Z" class="cls-2"/><g><g><polygon points="69 36.77 54.45 36.77 54.45 105.94 69 105.94 69 77.04 95.68 77.04 95.68 105.94 110.23 105.94 110.23 36.77 95.68 36.77 95.68 64.81 69 64.81 69 36.77" class="cls-1"/><path d="M161.28,47.27c12.81,0,18.69,7.81,18.69,24.09s-5.88,24.08-18.69,24.08-18.59-7.8-18.59-24.66c0-15.7,6.07-23.51,18.59-23.51ZM126.79,70.68c0,25.15,10.69,36.71,34.49,36.71s34.49-11.56,34.49-36.03-10.99-35.94-34.49-35.94-34.49,11.46-34.49,35.26Z" class="cls-1"/><path d="M239.87,105.94h18.41v-11.46h-17.15c-6.17,0-10.31-.86-13.39-4.53-2.31-2.69-2.41-6.84-2.41-12.52v-40.65h-14.55v41.14c0,9.16.96,15.22,6.26,20.81,6.17,6.55,12.81,7.22,22.84,7.22Z" class="cls-1"/><path d="M331.15,49.1v-12.33h-38.06c-16.47,0-24.27,6.16-24.27,21.19,0,13.87,7.22,19.85,23.02,19.85h17.14c7.03,0,10.31,1.83,10.31,8s-3.56,7.8-11.27,7.8h-36.41v12.33h38.73c16.37,0,24.18-6.17,24.18-20.71s-6.65-19.56-22.07-19.56h-19.26c-6.07,0-9.15-2.51-9.15-7.52,0-6.36,3.57-9.06,11.17-9.06h35.94Z" class="cls-1"/><path d="M380.63,48.81h23.89v-12.04h-24.19c-22.25,0-32.56,11.37-32.56,35.84,0,12.52,3.47,21.58,10.6,27.27,6.73,5.39,13.19,6.07,21.57,6.07h24.57v-12.04h-23.89c-11.47,0-16.38-4.53-16.48-16.96h40.37v-12.04h-40.27c.57-10.89,5.87-16.09,16.38-16.09Z" class="cls-1"/><polygon points="439.1 48.91 439.1 105.94 454.12 105.94 454.12 48.91 476.57 48.91 476.57 36.87 416.75 36.87 416.75 48.91 439.1 48.91" class="cls-1"/></g><path d="M24.37,176.51h-8.73l-5.76,26.73H3.15l5.7-26.73H0l1.15-5.39h25.46l-2.24,5.39Z"/><path d="M62.25,192.09c-1.09,4.97-2.18,6.73-4.61,8.61-2.36,1.88-5.64,3.15-10.3,3.15-6.79,0-10.91-3.03-10.91-7.7,0-1.15.18-2.79.48-4.3l4.43-20.73h6.73l-4.3,20.18c-.36,1.7-.48,2.79-.48,3.52,0,2.18,1.64,3.58,4.79,3.58,2.55,0,4.36-.67,5.52-2.06.97-1.15,1.52-2.48,2-4.85l4.36-20.37h6.79l-4.49,20.97Z"/><path d="M94.92,176.15c1.82,0,3.15.18,4.06.61,1.33.61,1.88,1.76,1.7,3.33-.18,1.64-1.15,3.15-2.48,3.94-1.27.73-2.85,1.03-5.52,1.03h-2.91l1.88-8.91h3.27ZM107.53,179.79c.24-2.48-.3-4.61-1.94-6.3-1.64-1.7-4.49-2.36-8.55-2.36h-10.85l-6.85,32.12h6.61l2.79-13.39c1.39-.06,2.12.36,2.97,1.58.91,1.33,2,3.03,3.39,6.12.91,2.06,1.64,4,2.42,6.12l7.21-.73c-.67-1.88-1.76-4.43-3.03-7.03-2.61-5.34-4.12-6.49-4.18-6.55,2.3-.12,4.49-1.09,6.3-2.61,2.06-1.76,3.46-4.3,3.7-6.97Z"/><path d="M143.05,179.42c0,2.61-1.64,4.49-6.06,4.49h-4.67l1.58-7.46h4.3c3.82,0,4.85,1.09,4.85,2.97ZM150.38,177.6c0-3.94-3.03-6.48-8.97-6.48h-12.97l-6.79,32.12h12c3.15,0,5.52-.3,7.64-1.15,4.61-1.82,7.33-5.64,7.33-9.76,0-3.03-1.76-5.21-5.21-6.18,4.24-1.21,6.97-4.91,6.97-8.55ZM141.23,192.45c0,2-1.15,3.88-2.91,4.73-1.03.49-2.43.79-4.12.79h-4.79l1.88-8.73h4.91c3.64,0,5.03,1.03,5.03,3.21Z"/><path d="M189.17,181.54c0,4.18-1.46,10.49-3.82,13.88-1.64,2.36-4.12,3.45-6.91,3.45-4.3,0-6.06-1.82-6.06-6.36,0-4,1.82-11.27,4.73-14.37,1.52-1.58,3.82-2.55,6.12-2.55,4,0,5.94,1.88,5.94,5.94ZM196.75,181.97c0-7.4-4.91-11.33-12.43-11.33-4.49,0-8.55,1.33-11.7,4.06-4.79,4.12-7.52,10.85-7.52,17.15,0,7.21,4.12,11.88,12.67,11.88,5.03,0,9.03-1.33,12.36-4.49,4.36-4.18,6.61-11.33,6.61-17.28Z"/><path d="M235.18,177.36c-1.58-1.15-3.58-1.76-5.52-1.76-2.79,0-5.52,1.45-7.52,3.45-2.85,2.85-4.18,9.27-4.18,12.97,0,4.43,2.85,6.67,7.03,6.67,2.3,0,4.18-.55,6.67-1.94l2.24,4c-2.97,2-6.24,3.03-10.3,3.03-9.09,0-13.09-4.91-13.09-11.7,0-5.27,1.88-10.97,5.33-14.97,3.82-4.49,9.15-6.67,14.61-6.67,3.45,0,6.85,1.03,8.55,2.55l-3.82,4.36Z"/><path d="M273.61,203.24h-6.79l3.09-14.31h-11.09l-3.03,14.31h-6.73l6.85-32.12h6.67l-2.67,12.43h11.09l2.67-12.43h6.79l-6.85,32.12Z"/><path d="M311.25,190.33h-8c.97-1.94,6-11.27,6.79-13.09-.06,1.82,1.09,11.21,1.21,13.09ZM319.67,203.24l-4.61-32.25h-7.27l-18.79,32.25h7.15l4.36-7.76h11.15l.97,7.76h7.03Z"/><path d="M350.71,176.15c1.82,0,3.15.18,4.06.61,1.33.61,1.88,1.76,1.7,3.33-.18,1.64-1.15,3.15-2.49,3.94-1.27.73-2.85,1.03-5.52,1.03h-2.91l1.88-8.91h3.27ZM363.31,179.79c.24-2.48-.3-4.61-1.94-6.3-1.64-1.7-4.49-2.36-8.55-2.36h-10.85l-6.85,32.12h6.61l2.79-13.39c1.39-.06,2.12.36,2.97,1.58.91,1.33,2,3.03,3.39,6.12.91,2.06,1.64,4,2.43,6.12l7.21-.73c-.67-1.88-1.76-4.43-3.03-7.03-2.6-5.34-4.12-6.49-4.18-6.55,2.3-.12,4.49-1.09,6.3-2.61,2.06-1.76,3.45-4.3,3.7-6.97Z"/><path d="M403.8,178.21c-2-1.58-4.3-2.42-7.33-2.42s-5.64,1.09-7.33,3.09c-2.6,3.03-4.36,9.27-4.36,13.64s2.91,6.3,7.21,6.3c1.64,0,3.03-.36,4.3-.85l1.58-7.33h-5.58v-5.27h13.64l-3.33,15.46c-3.94,1.88-7.88,2.79-12.06,2.79-8.67,0-13.03-4.73-13.03-11.7,0-5.21,1.94-11.52,5.82-15.58,3.34-3.52,8.12-5.7,14.19-5.7,4.18,0,7.64,1.21,10.3,3.52l-4,4.06Z"/><path d="M445.93,176.39h-12.61l-1.52,7.33h10.49l-1.15,5.4h-10.48l-1.76,8.55h13.88l-1.15,5.58h-20.67l6.79-32.12h20.24l-2.06,5.27Z"/><path d="M475.45,176.15c1.82,0,3.15.18,4.06.61,1.33.61,1.88,1.76,1.7,3.33-.18,1.64-1.15,3.15-2.49,3.94-1.27.73-2.85,1.03-5.52,1.03h-2.91l1.88-8.91h3.27ZM488.06,179.79c.24-2.48-.3-4.61-1.94-6.3-1.64-1.7-4.49-2.36-8.55-2.36h-10.85l-6.85,32.12h6.61l2.79-13.39c1.39-.06,2.12.36,2.97,1.58.91,1.33,2,3.03,3.39,6.12.91,2.06,1.64,4,2.43,6.12l7.21-.73c-.67-1.88-1.76-4.43-3.03-7.03-2.6-5.34-4.12-6.49-4.18-6.55,2.3-.12,4.49-1.09,6.3-2.61,2.06-1.76,3.45-4.3,3.7-6.97Z"/><path d="M527.27,177.85c-2.61-1.52-5.46-2.3-8.06-2.3-3.76,0-6.24,1.58-6.24,3.94,0,1.52.97,2.55,3.58,3.39l3.94,1.27c4.67,1.52,7.21,4.06,7.21,7.76,0,7.27-7.09,12.06-16.36,12.06-3.94,0-8.18-.97-11.34-2.85l3.09-5.03c2.97,1.64,6,2.55,9.52,2.55,4.3,0,7.21-1.88,7.21-4.55,0-1.88-1.09-3.09-3.88-4.06l-3.7-1.27c-4.85-1.64-6.91-4.18-6.91-7.58,0-6.3,6.24-11.03,14.67-11.03,3.94,0,8.37,1.15,10.85,2.91l-3.58,4.79Z"/></g></g><path d="M518.06,14.26c0-7.84,6.41-14.26,14.33-14.26s14.26,6.41,14.26,14.26-6.37,14.33-14.26,14.33-14.33-6.41-14.33-14.33ZM544.38,14.26c0-6.94-5.06-12.37-12-12.37s-12.07,5.43-12.07,12.37,5.09,12.45,12.07,12.45,12-5.43,12-12.45ZM539.52,22.25h-2.34l-4.57-7.35h-3.58v7.35h-1.96V6.3h6.98c4.22,0,5.66,1.58,5.66,4.22,0,3.13-2.19,4.3-5.02,4.37l4.83,7.35ZM532.01,13.35c2.26,0,5.58.38,5.58-2.87,0-2.49-2.04-2.79-4-2.79h-4.56v5.66h2.98Z" class="cls-3"/></svg>