<svg xmlns="http://www.w3.org/2000/svg" id="Layer_1" data-name="Layer 1" viewBox="0 0 653.97 137.44"><defs><style>.cls-1{fill:#005da7}</style></defs><rect width="32.6" height="137.44" class="cls-1"/><polygon points="147.03 0 147.03 52.42 106.12 52.42 106.12 0 73.52 0 73.52 137.44 106.12 137.44 106.12 77.99 147.03 77.99 147.03 137.44 179.63 137.44 179.63 0 147.03 0" class="cls-1"/><rect width="32.6" height="137.44" x="219.91" class="cls-1"/><rect width="337.53" height="7.67" x="316.44" class="cls-1"/><rect width="337.53" height="7.67" x="316.44" y="129.77" class="cls-1"/><g><path d="M341.35,42.24h-21.45v-8.96h52.79v8.96h-21.45v62.09h-9.89v-62.09Z" class="cls-1"/><path d="M439.18,74.91c0,19.95-9.76,30.64-26.72,30.64s-26.72-10.69-26.72-30.64v-41.63h9.86v40.31c0,13.64,4.14,23,16.86,23s16.86-9.36,16.86-23v-40.31h9.86v41.63Z" class="cls-1"/><path d="M459.7,33.28h16.63c13.42,0,26.35,2.24,26.35,19.24,0,8.65-6.13,14.76-14,16.18v.2c3.01,1.22,4.47,2.75,6.61,7.13l12.84,28.3h-11.09l-10.4-24.63c-3.01-6.92-6.22-6.92-11.38-6.92h-5.83v31.55h-9.72V33.28ZM469.42,63.82h8.27c9.24,0,14.68-4.28,14.68-11.09,0-6.41-4.67-10.48-13.61-10.48h-9.33v21.58Z" class="cls-1"/><path d="M524.84,33.28h17.37c13.33,0,22.52,4.78,22.52,17.91,0,9.77-5.15,14.66-13.24,16.9v.2c8.73.81,14.89,7.13,14.89,17.1,0,15.27-11.4,18.93-24.45,18.93h-17.1V33.28ZM534.03,63.62h5.06c8.92,0,16.46-.92,16.46-11.4,0-8.45-6.53-10.59-11.86-10.59h-9.65v21.99ZM534.03,95.98h6.89c8.27,0,15.72-1.93,15.72-11.5,0-10.99-8.73-12.52-16.64-12.52h-5.98v24.02Z" class="cls-1"/><path d="M615.48,32.06c19.9,0,31.54,15.68,31.54,36.75s-11.54,36.75-31.54,36.75-31.54-15.17-31.54-36.75,11.64-36.75,31.54-36.75ZM615.48,96.59c15.11,0,21.59-13.64,21.59-27.79s-7.13-27.89-21.59-27.79c-14.45-.1-21.59,13.33-21.59,27.79s6.48,27.79,21.59,27.79Z" class="cls-1"/></g></svg>