<?xml version="1.0" encoding="UTF-8"?>
<svg id="Layer_1" data-name="Layer 1" xmlns="http://www.w3.org/2000/svg" viewBox="0 0 642.68 111.98">
  <defs>
    <style>
      .cls-1 {
        fill: #eb2227;
        fill-rule: evenodd;
      }

      .cls-2 {
        fill: #010101;
      }
    </style>
  </defs>
  <polygon class="cls-1" points="62.5 74.04 20.71 74.04 0 110.41 41.91 110.41 62.5 74.04 62.5 74.04 62.5 74.04"/>
  <polygon class="cls-1" points="83.74 36.73 62.84 0 41.89 36.73 62.84 73.52 83.74 36.73 83.74 36.73 83.74 36.73"/>
  <polygon class="cls-1" points="83.72 110.41 125.63 110.41 104.91 74.04 63.12 74.04 83.72 110.41 83.72 110.41 83.72 110.41"/>
  <polygon class="cls-2" points="180.6 80.85 193.93 61.3 195.06 80.85 214.06 80.85 208.68 37.82 188.4 37.82 180.6 53.5 172.8 37.82 152.52 37.82 147.14 80.85 166.14 80.85 167.27 61.3 180.6 80.85"/>
  <rect class="cls-2" x="221" y="37.82" width="20.98" height="43.03"/>
  <rect class="cls-2" x="474.86" y="37.82" width="20.98" height="43.03"/>
  <rect class="cls-2" x="621.7" y="37.82" width="20.98" height="43.03"/>
  <polygon class="cls-2" points="248.19 37.82 248.19 49.3 259.98 49.3 259.98 80.85 280.64 80.85 280.64 49.3 292.44 49.3 292.44 37.82 248.19 37.82"/>
  <path class="cls-2" d="M345.92,54.03v-11.43s-8.98-4.79-24.25-4.79-22.94,5.6-22.94,12.79,7.59,11.68,16,13.47c8.41,1.8,12.66,1.39,12.66,4.57s-5.63,4-10.45,2.78-16.41-6.74-16.41-6.74v11.64s10.53,5.31,22.78,5.31,24.25-4.08,24.25-13.31-9.8-13.14-18.13-14.29-11.59-2.69-10.61-4.98,7.35-2.61,14.12-.73,10.7,4.33,12.98,5.72Z"/>
  <path class="cls-2" d="M550.28,54.03v-11.43s-8.98-4.79-24.25-4.79-22.94,5.6-22.94,12.79,7.59,11.68,16,13.47c8.41,1.8,12.66,1.39,12.66,4.57s-5.63,4-10.45,2.78-16.41-6.74-16.41-6.74v11.64s10.53,5.31,22.78,5.31,24.25-4.08,24.25-13.31-9.8-13.14-18.13-14.29-11.59-2.69-10.61-4.98,7.35-2.61,14.12-.73,10.7,4.33,12.98,5.72Z"/>
  <path class="cls-2" d="M381.5,81.63c24.84,0,26.89-13.76,26.89-18.45v-25.36s-20.24,0-20.24,0c0,0,0,21.65,0,25.56s-2.64,8.41-6.65,8.41c-4.01,0-6.65-4.5-6.65-8.41v-25.56h-20.24v25.36c0,4.69,2.05,18.45,26.89,18.45Z"/>
  <path class="cls-2" d="M458.56,58.58c5.38-1.17,5.87-7.82,5.87-10.86,0-3.81-4.69-9.91-10.95-9.91h-36.38v43.03h39.31c8.02,0,10.71-7.2,10.71-11.56s-3.47-9.34-8.56-10.71ZM437.14,47.24h7.24c1.17,0,2.93.98,2.93,3.13s-1.08,3.62-2.84,3.62h-7.33v-6.75ZM444.92,70.71h-7.77v-6.75h7.68c1.17,0,2.93.98,2.93,3.13s-1.08,3.62-2.84,3.62Z"/>
  <polygon class="cls-2" points="592.48 37.82 592.48 53.46 579.7 53.46 579.7 37.82 559.49 37.82 559.49 80.85 579.7 80.85 579.7 65.2 592.48 65.2 592.48 80.85 612.69 80.85 612.69 37.82 592.48 37.82"/>
  <g>
    <path class="cls-2" d="M164.52,92.27h-7.26v19.34h-2.92v-19.34h-7.2v-2.61h17.38v2.61Z"/>
    <path class="cls-2" d="M194.32,111.98c-2.55,0-4.45-.49-5.71-1.48-1.26-.99-2.06-2.15-2.4-3.49-.33-1.34-.5-2.89-.5-4.66v-12.7h2.9v12.65c0,2.88.48,4.78,1.45,5.69.97.91,2.39,1.36,4.25,1.36s3.28-.45,4.25-1.36,1.45-2.81,1.45-5.69v-12.65h2.92v12.7c0,2.66-.32,4.61-.95,5.87-.63,1.26-1.59,2.2-2.87,2.82-1.28.62-2.88.94-4.81.94Z"/>
    <path class="cls-2" d="M244.2,111.61h-3.14l-2.07-5.85c-.37-1.04-.98-1.89-1.84-2.55s-1.85-.99-2.96-.99h-5.38v9.39h-2.9v-21.95h9.72c1.7,0,3.08.17,4.16.49s1.96,1.02,2.63,2.08,1.02,2.25,1.02,3.58c0,1.52-.44,2.78-1.32,3.8s-2.08,1.68-3.61,1.99v.06c1.53.49,2.69,1.81,3.49,3.97l2.2,5.97ZM228.81,99.62h6.48c1.81,0,3.12-.28,3.93-.85.81-.57,1.22-1.55,1.22-2.95,0-2.5-1.57-3.74-4.7-3.74h-6.93v7.55Z"/>
    <path class="cls-2" d="M282.52,105.23c0,2.06-.7,3.63-2.1,4.73s-3.43,1.65-6.09,1.65h-8.22v-21.95h7.82c2.34,0,4.17.5,5.51,1.5s2.01,2.37,2.01,4.1c0,2.12-1.05,3.68-3.16,4.7,1.42.36,2.48,1.02,3.18,1.98s1.06,2.06,1.06,3.29ZM269.02,98.85h4.88c1.61,0,2.79-.26,3.55-.77.76-.51,1.14-1.37,1.14-2.57,0-1.08-.37-1.89-1.11-2.43-.74-.54-2.02-.81-3.85-.81h-4.61v6.59ZM269.02,109.01h5.28c3.47,0,5.21-1.26,5.21-3.77,0-1.31-.4-2.26-1.21-2.87s-2.26-.91-4.38-.91h-4.91v7.55Z"/>
    <path class="cls-2" d="M314.13,89.29c3.07,0,5.59,1.04,7.54,3.11,1.96,2.07,2.94,4.82,2.94,8.23s-.98,6.16-2.94,8.23c-1.96,2.08-4.47,3.11-7.54,3.11s-5.61-1.04-7.58-3.12-2.95-4.82-2.95-8.23.98-6.16,2.95-8.23c1.97-2.08,4.49-3.11,7.58-3.11ZM314.1,109.5c2.2,0,3.99-.78,5.4-2.34,1.4-1.56,2.1-3.73,2.1-6.53s-.7-4.97-2.09-6.53c-1.4-1.56-3.18-2.34-5.35-2.34s-4.01.78-5.43,2.34-2.12,3.73-2.12,6.53.7,4.96,2.11,6.52c1.41,1.56,3.2,2.34,5.38,2.34Z"/>
    <path class="cls-2" d="M355.72,111.98c-3.1,0-5.58-1.02-7.43-3.06-1.85-2.04-2.78-4.8-2.78-8.29s.93-6.25,2.78-8.29c1.85-2.04,4.33-3.06,7.43-3.06,2.39,0,4.42.64,6.09,1.93,1.68,1.29,2.62,2.98,2.83,5.09h-3c-.12-1.39-.72-2.49-1.8-3.31-1.08-.82-2.45-1.23-4.09-1.23-2.23,0-3.99.77-5.28,2.3-1.3,1.53-1.95,3.72-1.95,6.56s.64,5.02,1.93,6.56c1.29,1.54,3.03,2.3,5.24,2.3,1.72,0,3.1-.42,4.16-1.26,1.06-.84,1.65-2.04,1.79-3.59h3c-.21,2.34-1.13,4.14-2.76,5.42-1.63,1.28-3.68,1.92-6.17,1.92Z"/>
    <path class="cls-2" d="M403.96,111.61h-2.92v-10.33h-11.41v10.33h-2.9v-21.95h2.9v9.01h11.41v-9.01h2.92v21.95Z"/>
    <path class="cls-2" d="M444.96,111.61h-3.28l-2.55-6.68h-9.19l-2.42,6.68h-3.07l8.43-21.95h3.13l8.95,21.95ZM438.28,102.63l-3.86-10.18-3.68,10.18h7.54Z"/>
    <path class="cls-2" d="M483.74,111.61h-3.14l-2.07-5.85c-.37-1.04-.98-1.89-1.84-2.55-.86-.66-1.85-.99-2.96-.99h-5.38v9.39h-2.9v-21.95h9.72c1.7,0,3.08.17,4.16.49s1.96,1.02,2.64,2.08,1.02,2.25,1.02,3.58c0,1.52-.44,2.78-1.32,3.8-.88,1.02-2.08,1.68-3.61,1.99v.06c1.53.49,2.69,1.81,3.49,3.97l2.2,5.97ZM468.35,99.62h6.48c1.81,0,3.12-.28,3.93-.85.81-.57,1.22-1.55,1.22-2.95,0-2.5-1.57-3.74-4.7-3.74h-6.93v7.55Z"/>
    <path class="cls-2" d="M515.24,111.98c-3.15,0-5.71-1.03-7.67-3.1-1.96-2.07-2.94-4.82-2.94-8.25s.97-6.2,2.9-8.26c1.94-2.06,4.48-3.09,7.62-3.09,2.64,0,4.84.64,6.59,1.91,1.75,1.27,2.73,2.98,2.94,5.11h-3.01c-.12-1.42-.76-2.53-1.92-3.33s-2.69-1.21-4.58-1.21c-2.27,0-4.09.77-5.47,2.32-1.38,1.55-2.07,3.73-2.07,6.54s.7,4.98,2.09,6.53c1.4,1.55,3.23,2.33,5.48,2.33,3.16,0,5.51-1.04,7.05-3.13v-3.34h-5.79v-2.62h8.61v11.2h-2.05l-.76-2.31c-1.49,1.79-3.83,2.68-7.02,2.68Z"/>
    <path class="cls-2" d="M563.92,111.61h-16.36v-21.95h15.86v2.61h-12.95v6.71h12.11v2.61h-12.11v7.43h13.46v2.6Z"/>
    <path class="cls-2" d="M604.36,111.61h-3.14l-2.07-5.85c-.37-1.04-.98-1.89-1.84-2.55-.86-.66-1.85-.99-2.96-.99h-5.38v9.39h-2.9v-21.95h9.72c1.7,0,3.08.17,4.16.49s1.96,1.02,2.64,2.08,1.02,2.25,1.02,3.58c0,1.52-.44,2.78-1.32,3.8-.88,1.02-2.08,1.68-3.61,1.99v.06c1.53.49,2.69,1.81,3.49,3.97l2.2,5.97ZM588.97,99.62h6.48c1.81,0,3.12-.28,3.93-.85.81-.57,1.22-1.55,1.22-2.95,0-2.5-1.57-3.74-4.7-3.74h-6.93v7.55Z"/>
    <path class="cls-2" d="M634.55,111.98c-3.09,0-5.41-.69-6.94-2.08-1.53-1.39-2.34-3.17-2.42-5.34h2.8c.15,1.64.83,2.85,2.04,3.63s2.68,1.17,4.39,1.17c1.63,0,2.94-.33,3.93-1,.99-.67,1.49-1.58,1.49-2.72,0-1.21-.51-2.09-1.54-2.64-1.03-.55-2.8-1.09-5.31-1.62-2.51-.53-4.31-1.28-5.4-2.22-1.09-.95-1.64-2.21-1.64-3.79,0-1.78.71-3.23,2.13-4.37,1.42-1.14,3.31-1.71,5.67-1.71,2.47,0,4.47.57,5.99,1.72,1.52,1.15,2.32,2.77,2.41,4.87h-2.83c-.29-2.66-2.11-3.98-5.45-3.98-1.62,0-2.87.3-3.76.91-.89.61-1.33,1.42-1.33,2.43,0,.92.36,1.61,1.07,2.07.71.46,2.05.9,4,1.33,1.95.43,3.5.85,4.65,1.27,1.15.42,2.13,1.07,2.95,1.95.82.88,1.23,2.07,1.23,3.56,0,1.89-.75,3.45-2.25,4.7-1.5,1.25-3.46,1.87-5.88,1.87Z"/>
  </g>
</svg>