<svg xmlns="http://www.w3.org/2000/svg" xmlns:xlink="http://www.w3.org/1999/xlink" id="Layer_1" data-name="Layer 1" viewBox="0 0 1000 228.27"><defs><style>.cls-1{fill:#231f20}.cls-2{fill:#0d91ce}.cls-3{fill:url(#radial-gradient)}.cls-4{fill:#8fc740}</style><radialGradient id="radial-gradient" cx="190.5" cy="33.96" r="211.21" fx="181.93" fy="33.96" gradientUnits="userSpaceOnUse"><stop offset="0" stop-color="#f1f0f0"/><stop offset=".14" stop-color="#bfbebe"/><stop offset=".28" stop-color="#929191"/><stop offset=".43" stop-color="#6c6c6c"/><stop offset=".58" stop-color="#4f4f4f"/><stop offset=".72" stop-color="#3a3a3a"/><stop offset=".86" stop-color="#2e2e2e"/><stop offset="1" stop-color="#2a2a2a"/></radialGradient></defs><path d="M989.71,83.9c5.75,0,10.29,4.48,10.29,10.16s-4.53,10.29-10.34,10.29-10.42-4.47-10.42-10.29,4.6-10.16,10.42-10.16h.05ZM997.7,94.13c0-4.66-3.39-8.44-8.04-8.44h-.08c-4.6,0-8.11,3.77-8.11,8.37s3.51,8.44,8.24,8.44c4.6.07,7.99-3.71,7.99-8.37Z" class="cls-1"/><path d="M994.44,99.68h-2.04c-.33-.38-.58-1.34-.84-2.81-.25-1.14-.96-1.66-2.48-1.66h-1.27v4.47h-1.98v-10.67c1.09-.18,2.23-.32,3.71-.32,1.79,0,2.68.32,3.38.83.64.45,1.09,1.27,1.09,2.23,0,1.34-.96,2.18-2.1,2.56v.12c.96.39,1.46,1.22,1.79,2.56.32,1.66.51,2.3.76,2.68ZM991.89,91.96c0-1.02-.64-1.72-2.56-1.72-.76,0-1.21.07-1.52.12v3.32h1.33c1.47,0,2.76-.45,2.76-1.72Z" class="cls-1"/><path d="M975.9,128.84h-51.92c.74,8.62,9.6,14.2,18.32,14.2s15.27-8.87,15.27-8.87c0,0,7.73,5.74,15.11,11.17-4.68,6.07-11.17,10.92-20.37,12.97-9.2,2.06-20.85,1.89-32.76-4.02-11.92-5.91-16.27-19.71-17.33-27.84-1.06-8.12,1.39-18.72,5.08-24.96,3.71-6.24,15.11-17.49,35.15-17.49s28.06,13.26,30.8,21.07c2.65,7.58,2.65,14.19,2.65,23.77ZM923.98,113.56h29.84s-.28-13.74-14.87-13.74-14.97,13.74-14.97,13.74Z" class="cls-1"/><path d="M892.91,115.87v41.81h-22.31v-40.15c0-5.87-1.66-13.95-12.02-13.95s-13.31,9.28-13.31,14.51v39.6h-22.11v-71.91h21.74v9.63c4.59-8.62,13.68-12.17,22.95-12.17s14.4,3.55,18.08,7.21c3.67,3.67,6.98,11.47,6.98,25.42Z" class="cls-1"/><polygon points="815.95 85.7 774.89 190.62 753.13 190.62 765.42 158.51 733.31 85.7 757.75 85.7 777.19 133.56 793.18 85.7 815.95 85.7" class="cls-1"/><path d="M728.76,59.26v98.21h-21.14v-9.75c-1.09,2.96-5.79,8.87-14.89,11.06-9.09,2.18-21.9-.22-30.11-6.57-8.21-6.36-11.27-15.88-12.48-28.14-1.2-12.26,4.27-24.31,12.38-32.3,8.11-8,24.41-9.09,32.09-6.69,7.66,2.42,11.6,8.68,11.6,8.68v-34.52h22.56ZM708.4,121.67c0-4.72-1.69-18.01-18.51-18.01s-17.57,13.41-17.57,19.21,3.67,17.46,17.74,17.46,18.34-10.06,18.34-18.66Z" class="cls-1"/><path d="M641.52,114.54v43.13h-20.23v-9.68c-6.6,12.31-20.38,11.98-28.64,11.44-8.28-.55-17.83-7.57-19.47-14.85-1.56-6.96-2.15-16.1,7.75-24.95,9.91-8.88,30.27-7.78,40.3-7.73.81-6.14-5.05-12.59-14.85-12.98-9.79-.38-17.9,8.28-17.9,8.28l-11.93-11.72c10.89-9.96,22.6-12.26,32.95-12.26s19.81,2.63,25.24,9.68c5.41,7.07,6.78,15.06,6.78,21.63ZM621.27,132.87v-6.52s-8.9-.17-14.11.3-10.91,2.43-12.98,6.1c-2.08,3.68-.71,9.2,4.74,10.92,5.45,1.71,12.04,1,16.48-1.96,4.45-2.97,5.87-7.06,5.87-8.84Z" class="cls-1"/><path d="M564.84,115.87v41.81h-22.31v-40.15c0-5.87-1.66-13.95-12.02-13.95s-13.31,9.28-13.31,14.51v39.6h-22.11v-71.91h21.74v9.63c4.59-8.62,13.68-12.17,22.95-12.17s14.4,3.55,18.08,7.21c3.67,3.67,6.98,11.47,6.98,25.42Z" class="cls-1"/><path d="M483.88,114.54v43.13h-20.23v-9.68c-6.6,12.31-20.38,11.98-28.66,11.44-8.26-.55-17.82-7.57-19.46-14.85-1.56-6.96-2.17-16.1,7.75-24.95,9.91-8.88,30.27-7.78,40.28-7.73.83-6.14-5.03-12.59-14.83-12.98-9.8-.38-17.9,8.28-17.9,8.28l-11.94-11.72c10.89-9.96,22.61-12.26,32.97-12.26s19.81,2.63,25.23,9.68c5.43,7.07,6.79,15.06,6.79,21.63ZM463.63,132.87v-6.52s-8.9-.17-14.11.3-10.91,2.43-12.98,6.1c-2.08,3.68-.71,9.2,4.74,10.92,5.45,1.71,12.04,1,16.48-1.96,4.44-2.97,5.87-7.06,5.87-8.84Z" class="cls-1"/><path d="M406.94,139.18v18.32s-1.54,2.3-16.15,2.3-25.71-8.13-25.71-18.32v-73.79h22.72v17.93h19.14v18.08h-19.14v28.16c0,4.65,3.46,9.17,8.78,9.17s9.17-.66,10.37-1.85Z" class="cls-1"/><path d="M335.99,104.1c13.55,3.59,20.72,13.95,20.33,24.45-.41,10.48-3.99,21.52-17.15,27.76-13.15,6.24-27.5,6.24-39.06,3.19-11.55-3.06-17.26-6.65-21.39-10.89,7.58-7.45,17.41-16.75,17.41-16.75,0,0,8.63,10.5,22.06,9.04,13.41-1.46,17.67-12.35,10.5-16.21-7.19-3.85-30.97-8.63-38.67-15.81-7.71-7.17-9.3-18.07-6.24-26.97,3.05-8.9,11.15-17,23.65-20.33,12.48-3.32,34.13-3.46,48.89,8.63l-16.48,16.48s-5.72-7.17-18.6-6.5c-12.89.66-15.67,9.96-12.48,13.95,3.18,3.98,13.68,6.37,27.24,9.96Z" class="cls-1"/><path d="M238.27,114.99h-.01c.01-.29.01-.56.01-.85C238.27,51.1,187.18,0,124.14,0c-31.14,0-59.36,12.46-79.95,32.68,16.86-13.19,38.1-21.06,61.17-21.06,46.67,0,85.84,32.16,96.52,75.52,1.89,7.65,2.89,15.65,2.89,23.87,0,54.89-44.5,99.4-99.41,99.4-34.91,0-65.62-18-83.34-45.22,18.3,36.57,55.68,61.92,99.09,63.05,1,.03,2.01.04,3.02.04s2.02-.01,3.02-.04c17.44-.34,34.11-3.76,49.52-9.74,44.72-17.26,78.78-55.97,89.59-103.51h-28Z" class="cls-3"/><path d="M121.59,64.24c29.34,0,53.13,23.78,53.13,53.13s-23.79,53.13-53.13,53.13-53.15-23.79-53.15-53.13,23.79-53.13,53.15-53.13Z" class="cls-4"/><path d="M119.77,41.76c26.4,0,49.59,13.76,62.76,34.49-13.4-27.03-40.65-45.97-72.46-47.59-.66-.03-1.31-.05-1.97-.07-.81-.03-1.63-.04-2.44-.04s-1.63.01-2.44.04c-.66.01-1.31.04-1.97.07-34.86,1.38-65.47,19.26-84.25,46.03-3.26,4.62-6.15,9.53-8.66,14.65-3.67,7.5-6.49,15.5-8.34,23.86h19.88c-.01.38-.01.78-.01,1.16,0,47.38,38.42,85.78,85.8,85.78,26.12,0,49.51-11.67,65.23-30.08-13.32,12.63-31.31,20.38-51.12,20.38-41.06,0-74.34-33.29-74.34-74.34S78.71,41.76,119.77,41.76Z" class="cls-2"/></svg>