<?xml version="1.0" encoding="UTF-8"?>
<svg id="Layer_1" data-name="Layer 1" xmlns="http://www.w3.org/2000/svg" viewBox="0 0 447.2 328.34">
  <defs>
    <style>
      .cls-1 {
        fill: #de2144;
      }
    </style>
  </defs>
  <path class="cls-1" d="M129.39,323.24l-6.33-50.1c-.36-2.75-.71-4.7-5.9-4.7h-26.67c-3.36,0-5,.16-6.2,2.3l-29.23,53.24c-1.26,2.11-.22,3.94,1.85,3.94h17.25c2.29-.03,3.46-.51,4.69-2.52,1.67-3.05,3.24-6.19,4.54-8.96.17-.19.36-.34.63-.34h22.1c.29,0,.61.25.63.51l.82,7.74c.33,2.85,1.74,3.56,4.01,3.56h14.23c3.03,0,4.1-1.43,3.59-4.69M104.61,302.95h-13.72c-.22,0-.39-.19-.32-.46l11.48-22.5c.14-.34.56-.46.68,0l2.44,22.33c.06.44-.14.63-.56.63"/>
  <path class="cls-1" d="M373.37,323.24l-6.36-50.14c-.38-2.74-.68-4.66-5.87-4.66h-26.7c-3.34,0-5.03.16-6.24,2.29l-29.17,53.22c-1.25,2.15-.26,3.98,1.86,3.98h17.23c2.27-.04,3.45-.55,4.67-2.52,1.67-3.06,3.26-6.19,4.55-8.96.15-.19.33-.34.63-.35h22.12c.27,0,.59.25.59.52l.87,7.74c.31,2.82,1.71,3.56,3.99,3.56h14.22c3.03,0,4.1-1.47,3.61-4.69M348.55,302.93h-13.73c-.22,0-.39-.17-.31-.44l11.47-22.52c.16-.35.6-.47.71,0l2.45,22.35c.04.38-.18.61-.6.61"/>
  <path class="cls-1" d="M272.69,323.95l4.61-25.08c.28-1.37-.36-1.43-.84-.69l-20.88,27.25c-1.04,1.38-2.67,2.5-4.03,2.5h-5.03c-1.37,0-2.51-.96-2.94-2.03l-10.1-27.6c-.42-1.16-.74-.76-.91.22l-4.88,26.54c-.3,1.65-1.39,2.87-3.08,2.87h-15.16c-2.24,0-3.24-1.12-2.79-3.36l10.19-51.89c.67-3.33,2.46-4.27,4.94-4.27h16.59c3.09,0,5.2.66,6.03,2.85l8.81,23.85c.49,1.14.57,1.14,1.32.1l18.83-24.03c1.6-2.06,2.96-2.8,5.76-2.8h20.93c3.61,0,4.1,1.89,3.61,4.47l-10.09,52.51c-.37,1.65-1.59,2.74-3.42,2.74h-14.4c-3.12,0-3.43-2.07-3.07-4.14"/>
  <path class="cls-1" d="M179.71,294.61l4.06-22.02c.58-3.33,2.27-3.99,4.92-3.99h13.03c2.48,0,4.22.89,3.56,4.27l-10.08,50.82c-.63,3.31-2.32,4.23-4.4,4.23h-10.44c-1.89,0-3.41-.58-4.28-2.02l-14.15-24.04c-.33-.57-.62-.41-.67.06l-3.9,21.32c-.51,2.78-1.25,4.84-4.27,4.84h-14.98c-2.46,0-3.36-1.3-2.85-3.78l9.75-51.6c.63-3.5,2.52-4.09,4.23-4.09h10.85c2.68,0,3.97,1.05,5.69,3.95l13.09,22.07c.25.41.74.6.86-.01"/>
  <path class="cls-1" d="M436.18,268.34l-41.61.11c-4.7,0-5.79.85-6.39,3.86l-10.13,52.05c-.45,2.37-.05,3.41,2.81,3.56,1.48.11,14.09.04,15.45,0,2.33,0,3.49-1.08,3.9-2.94,1.34-5.71,2.99-14.75,3.36-16.77.19-.97.26-1.04,1.89-1.04h11.59c1.93,0,2.69.91,2.26,3.57l-2.26,13.99c-.28,1.83.46,3.19,2.63,3.19,2.98,0,13.33.11,15.22,0,2.87-.02,4.04-.66,4.71-4.44l2.34-13.02c.76-4.06.84-9.78-5.71-11.97-.33-.07-.29-.37-.03-.41,5.26-1.46,7.44-4.62,8.76-8.56.79-2.52,1.48-6.92,1.99-10.23,1.26-7.56-3.36-10.95-10.78-10.95M424.57,283.91c-.09,1.24-.84,5.03-1.4,7.38-.63,2.72-1.7,3.39-5.6,3.39h-10.66c-.68,0-.81-.21-.71-.76l2.42-12.69c.06-.16.2-.34.51-.34,2.78-.06,12.07-.07,13.03,0,2.02.22,2.53,1.12,2.42,3.01"/>
  <path class="cls-1" d="M33.46,288.63l15.24-18.67c.83-1.01,1.31-1.65,2.97-1.65h20.68c2.9,0,2.41,1.93,1.7,2.8l-30.48,36.61c-.25.28-.44,1.15-.53,1.49l-3.58,16.59c-.36,1.84-1.93,2.54-3.89,2.54h-15.54c-3.19,0-3.42-1.8-3.01-3.92l2.9-14.65c.12-.56.15-.85-.06-1.27L.18,270.73c-.58-1.3.33-2.42,2.01-2.42h17.37c1.69,0,3.04.6,3.63,1.84l9.01,18.49c.38.83.8.55,1.27,0"/>
  <polygon class="cls-1" points="235.87 223.61 447.2 136.07 447.2 82.85 235.87 170.38 235.87 223.61"/>
  <polygon class="cls-1" points="223.62 92.62 0 0 0 53.21 223.62 145.83 447.19 53.21 447.19 0 223.62 92.62"/>
  <polygon class="cls-1" points="0 136.07 211.31 223.61 211.31 170.37 0 82.85 0 136.07"/>
</svg>