<?xml version="1.0" encoding="UTF-8"?>
<svg id="Layer_1" data-name="Layer 1" xmlns="http://www.w3.org/2000/svg" viewBox="0 0 254.87 61.94">
  <defs>
    <style>
      .cls-1 {
        fill: none;
      }

      .cls-2 {
        fill: #5a87c6;
      }

      .cls-3 {
        fill: #ef4135;
      }
    </style>
  </defs>
  <rect class="cls-1" width="254.87" height="61.94"/>
  <g>
    <polygon class="cls-2" points="134.2 35.89 134.2 25.17 145.1 25.17 156.42 7.87 141.08 7.87 134.16 19.69 127.16 7.87 111.9 7.87 126.11 29.94 110.63 54.07 125.93 54.07 134.16 39.89 142.58 54.07 158.01 54.07 145.9 35.89 134.2 35.89 134.2 35.89"/>
    <polygon class="cls-2" points="74.67 54.07 74.67 7.87 106.1 7.87 106.1 18.91 87.02 18.91 87.02 43.22 106.1 43.22 106.1 54.07 74.67 54.07 74.67 54.07"/>
    <polygon class="cls-2" points="163.19 54.07 163.19 7.87 194.62 7.87 194.62 18.91 175.54 18.91 175.54 43.22 194.62 43.22 194.62 54.07 163.19 54.07 163.19 54.07"/>
    <polygon class="cls-2" points="205.25 7.87 205.25 54.07 234.76 54.07 234.76 42.85 234.76 42.85 217.93 42.85 217.93 7.87 205.25 7.87 205.25 7.87"/>
    <polygon class="cls-3" points="92.11 24.46 104.26 24.46 104.26 36.58 92.11 36.58 92.11 24.46 92.11 24.46"/>
    <polygon class="cls-3" points="7.89 24.46 20.01 24.46 20.01 36.58 7.89 36.58 7.89 24.46 7.89 24.46"/>
    <polygon class="cls-3" points="180.63 24.46 192.78 24.46 192.78 36.58 180.63 36.58 180.63 24.46 180.63 24.46"/>
    <polygon class="cls-3" points="234.85 24.46 246.98 24.46 246.98 36.58 234.85 36.58 234.85 24.46 234.85 24.46"/>
    <polygon class="cls-2" points="66.37 54.07 29.69 54.07 29.69 43.22 48.58 18.91 30.81 18.91 30.81 7.87 65.41 7.87 65.41 18.91 60.55 25.17 48.86 25.17 48.86 35.89 52.26 35.89 46.61 43.22 66.37 43.22 66.37 54.07 66.37 54.07"/>
  </g>
</svg>