<svg xmlns="http://www.w3.org/2000/svg" id="Layer_1" data-name="Layer 1" viewBox="0 0 606.61 428.03"><defs><style>.cls-1{fill:#fff}.cls-2{fill:#381460}.cls-3{fill:#782b90}</style></defs><rect width="606.61" height="428.03" class="cls-1"/><path d="M0,0v428.03h606.61V0H0ZM595.63,10.96v307.88H10.99V10.96h584.64Z" class="cls-2"/><g><g><path d="M435.55,173.25c0,2.99,3.06,10.92,5.65,17.11,1.45-4.5,2.24-9.29,2.24-14.27,0-6.11-1.19-11.95-3.33-17.3-2.29,5.64-4.56,11.88-4.56,14.46Z" class="cls-3"/><path d="M422.37,173.25c0-4.25,8.52-16.14,13.45-22.66-8.3-12.59-22.56-20.9-38.77-20.9-25.63,0-46.4,20.77-46.4,46.4s20.77,46.4,46.4,46.4c17.53,0,32.79-9.72,40.68-24.07-4.13-5.33-15.36-20.29-15.36-25.17ZM374.76,201.48c.77,1.74-.14,3.77-1.96,4.35h0c-1.29.42-2.71-.02-3.54-1.09-4.04-5.22-15.46-20.38-15.46-25.3s11.42-20.09,15.46-25.3c.83-1.07,2.25-1.51,3.54-1.09,1.81.59,2.72,2.61,1.96,4.35-2.6,5.91-7.77,18.15-7.77,22.04s5.17,16.13,7.77,22.04ZM389.9,186.22c.05,1.9-1.56,3.43-3.46,3.29-1.35-.1-2.5-1.04-2.86-2.35-1.77-6.36-6.62-24.72-4.76-29.27,1.86-4.55,18.16-14.28,23.88-17.58,1.18-.68,2.65-.55,3.69.33,1.46,1.23,1.54,3.45.17,4.77-4.64,4.49-14.05,13.87-15.52,17.47-1.47,3.6-1.3,16.89-1.13,23.34ZM419.42,162.62c-3.38,5.5-10.17,16.93-10.69,20.78-.53,3.85,2.94,16.69,4.71,22.89.52,1.83-.65,3.71-2.53,4.05-1.34.24-2.68-.38-3.36-1.56-3.3-5.72-12.55-22.29-11.89-27.17.67-4.87,14.04-18.35,18.76-22.97.97-.95,2.43-1.19,3.65-.6,1.72.83,2.34,2.96,1.35,4.58Z" class="cls-3"/></g><g><path d="M451.16,148.71c0-1.26,1.02-2.29,2.29-2.29h23.99c12.71,0,20.77,8.05,20.77,19.92,0,6.78-2.46,11.19-5.09,13.82-1.44,1.53-3.14,2.71-5.09,3.56l10.39,18.64c.85,1.52-.25,3.4-2,3.4h-8.73c-.84,0-1.61-.46-2.01-1.19l-9.95-18.3h-11.87v17.21c0,1.26-1.02,2.29-2.29,2.29h-8.14c-1.26,0-2.29-1.02-2.29-2.29v-54.76ZM477.01,174.39c6.04,0,9.75-5.36,7.27-12.23-.84-2.34-3.11-3.87-5.6-3.87h-14.81s0,16.1,0,16.1h13.14Z" class="cls-2"/><path d="M508.27,146.15h8.04c.7,0,1.37.32,1.8.88l28.13,35.99v-34.58c0-1.26,1.02-2.29,2.29-2.29h8.14c1.26,0,2.29,1.02,2.29,2.29v54.76c0,1.26-1.02,2.29-2.29,2.29h-8.04c-.7,0-1.37-.32-1.8-.88l-28.13-35.99v34.58c0,1.26-1.02,2.29-2.29,2.29h-8.14c-1.26,0-2.29-1.02-2.29-2.29v-54.76c0-1.26,1.02-2.29,2.29-2.29Z" class="cls-2"/></g><g><path d="M124.14,146.42h11.27c.94,0,1.79.58,2.13,1.46l21.12,54.76c.58,1.5-.53,3.11-2.13,3.11h-8.65c-.95,0-1.81-.59-2.14-1.48l-4.53-12.08h-22.88l-4.53,12.08c-.33.89-1.19,1.48-2.14,1.48h-8.65c-1.6,0-2.71-1.61-2.13-3.11l21.12-54.76c.34-.88,1.19-1.46,2.13-1.46ZM136.98,180.75l-7.03-19.49h-.34l-7.03,19.49h14.41Z" class="cls-2"/><path d="M217.25,148.71c0-1.26,1.02-2.29,2.29-2.29h23.99c12.71,0,20.77,8.05,20.77,19.92,0,6.78-2.46,11.19-5.09,13.82-1.44,1.53-3.14,2.71-5.09,3.56l10.39,18.64c.85,1.52-.25,3.4-2,3.4h-8.73c-.84,0-1.61-.46-2.01-1.19l-9.95-18.3h-11.87v17.21c0,1.26-1.02,2.29-2.29,2.29h-8.14c-1.26,0-2.29-1.02-2.29-2.29v-54.76ZM243.11,174.39c6.04,0,9.75-5.36,7.27-12.23-.84-2.34-3.11-3.87-5.6-3.87h-14.81s0,16.1,0,16.1h13.14Z" class="cls-2"/><path d="M275.72,146.42h8.14c1.26,0,2.29,1.02,2.29,2.29v54.76c0,1.26-1.02,2.29-2.29,2.29h-8.14c-1.26,0-2.29-1.02-2.29-2.29v-54.76c0-1.26,1.02-2.29,2.29-2.29Z" class="cls-2"/><path d="M163.81,148.71c0-1.26,1.02-2.29,2.29-2.29h22.72c12.63,0,21.19,8.39,21.19,19.92s-8.56,19.92-21.19,19.92h-12.29v17.21c0,1.26-1.02,2.29-2.29,2.29h-8.14c-1.26,0-2.29-1.02-2.29-2.29v-54.76ZM188.39,174.39c5.09,0,8.48-3.31,8.48-8.05s-3.39-8.05-8.48-8.05h-11.87v16.1h11.87Z" class="cls-2"/><path d="M88.55,188.47c-3.63,4.24-9.09,6.88-15.16,6.67-9.84-.34-18.01-8.47-18.39-18.31-.41-10.87,8.28-19.82,19.06-19.82,5.81,0,11,2.6,14.5,6.69.94,1.1,2.68.99,3.54-.18l4.85-6.64c.68-.93.56-2.2-.26-3.01-6.4-6.3-16.86-9.79-26.89-8.45-13.87,1.86-24.92,13.18-26.47,27.09-2.08,18.68,12.48,34.5,30.74,34.5,8.37,0,17.19-3.34,22.64-8.74.81-.8.92-2.08.25-3l-4.85-6.64c-.86-1.18-2.6-1.27-3.55-.17Z" class="cls-2"/><path d="M338.84,189.1c-3.41,3.66-8.25,5.97-13.62,6.05-10.21.16-18.97-8.11-19.36-18.32-.41-10.87,8.28-19.82,19.06-19.82,5.5,0,10.45,2.33,13.93,6.06.96,1.03,2.64.89,3.47-.25l4.34-5.94c.68-.93.56-2.22-.27-3.02-6.5-6.29-15.71-9.78-25.74-8.43-13.87,1.86-24.92,13.18-26.47,27.09-2.08,18.68,12.48,34.5,30.74,34.5,8.35,0,15.9-3.33,21.46-8.7.83-.81.97-2.09.29-3.03l-4.35-5.95c-.83-1.14-2.51-1.28-3.48-.24Z" class="cls-2"/></g></g><g><path d="M50.87,387.5v-33.6h13.46c2.51,0,4.74.44,6.67,1.32,1.94.88,3.46,2.15,4.57,3.8,1.11,1.66,1.67,3.65,1.67,5.99s-.51,4.38-1.54,6.02c-1.02,1.65-2.51,2.9-4.46,3.77-1.95.86-4.32,1.3-7.1,1.3h-5.3v11.4h-7.97ZM58.84,369.42h5.11c1.66,0,2.97-.33,3.91-1,.94-.66,1.42-1.76,1.42-3.28s-.48-2.68-1.45-3.37c-.97-.7-2.24-1.04-3.83-1.04h-5.16v8.69Z" class="cls-1"/><path d="M81.44,387.5v-33.6h13.63c2.5,0,4.68.41,6.54,1.22s3.3,1.99,4.32,3.52c1.02,1.53,1.52,3.37,1.52,5.53,0,1.65-.31,3.1-.94,4.34s-1.48,2.29-2.57,3.13c-1.09.84-2.32,1.46-3.7,1.86l9.05,13.99h-9.46l-7.49-12.36h-2.95v12.36h-7.97ZM89.41,368.75h4.7c1.66,0,2.96-.33,3.9-.98.94-.66,1.4-1.69,1.4-3.1s-.44-2.52-1.33-3.2c-.89-.68-2.16-1.02-3.8-1.02h-4.87v8.3Z" class="cls-1"/><path d="M112.88,387.5v-33.6h23.62v6.91h-15.65v6.24h13.13v6.38h-13.13v7.08h15.84v6.98h-23.81Z" class="cls-1"/><path d="M141.73,387.5v-33.6h22.13v7.27h-14.16v6.94h12.67v7.01h-12.67v12.38h-7.97Z" class="cls-1"/><path d="M168.44,387.5v-33.6h23.62v6.91h-15.65v6.24h13.13v6.38h-13.13v7.08h15.84v6.98h-23.81Z" class="cls-1"/><path d="M197.52,387.5v-33.6h13.63c2.5,0,4.68.41,6.54,1.22s3.3,1.99,4.32,3.52c1.02,1.53,1.52,3.37,1.52,5.53,0,1.65-.31,3.1-.94,4.34s-1.48,2.29-2.57,3.13c-1.09.84-2.32,1.46-3.7,1.86l9.05,13.99h-9.46l-7.49-12.36h-2.95v12.36h-7.97ZM205.49,368.75h4.7c1.66,0,2.96-.33,3.9-.98.94-.66,1.4-1.69,1.4-3.1s-.44-2.52-1.33-3.2c-.89-.68-2.16-1.02-3.8-1.02h-4.87v8.3Z" class="cls-1"/><path d="M229.7,387.5v-33.6h13.63c2.5,0,4.68.41,6.54,1.22s3.3,1.99,4.32,3.52c1.02,1.53,1.52,3.37,1.52,5.53,0,1.65-.31,3.1-.94,4.34s-1.48,2.29-2.57,3.13c-1.09.84-2.32,1.46-3.7,1.86l9.05,13.99h-9.46l-7.49-12.36h-2.95v12.36h-7.97ZM237.67,368.75h4.7c1.66,0,2.96-.33,3.9-.98.94-.66,1.4-1.69,1.4-3.1s-.44-2.52-1.33-3.2c-.89-.68-2.16-1.02-3.8-1.02h-4.87v8.3Z" class="cls-1"/><path d="M261.88,387.5v-33.6h23.62v6.91h-15.65v6.24h13.13v6.38h-13.13v7.08h15.84v6.98h-23.81Z" class="cls-1"/><path d="M290.97,387.5v-33.6h11.52c3.49,0,6.55.71,9.18,2.14s4.68,3.4,6.16,5.92c1.47,2.52,2.21,5.44,2.21,8.75,0,2.5-.42,4.78-1.26,6.84-.84,2.06-2.04,3.84-3.59,5.32-1.55,1.48-3.4,2.62-5.54,3.43-2.14.81-4.53,1.21-7.15,1.21h-11.52ZM298.94,380.08h3.14c1.44,0,2.74-.2,3.91-.6,1.17-.4,2.18-1,3.04-1.8.86-.8,1.51-1.78,1.97-2.95s.68-2.51.68-4.03c0-2.03-.4-3.74-1.2-5.14-.8-1.39-1.92-2.45-3.37-3.17-1.45-.72-3.12-1.08-5.03-1.08h-3.14v18.77Z" class="cls-1"/><path d="M348.67,388.22c-2.54,0-5.02-.38-7.43-1.13s-4.44-1.84-6.11-3.26l3.77-5.95c.7.75,1.6,1.4,2.69,1.94,1.09.54,2.25.96,3.49,1.26,1.24.3,2.44.44,3.61.44,1.63,0,2.97-.28,4.01-.83,1.04-.55,1.56-1.36,1.56-2.41,0-.86-.38-1.59-1.13-2.17s-2.14-1.16-4.15-1.72l-2.88-.79c-3.47-.96-5.96-2.27-7.48-3.94-1.51-1.66-2.27-3.67-2.27-6.02,0-1.5.32-2.89.95-4.16.63-1.27,1.53-2.38,2.69-3.31s2.52-1.66,4.08-2.17c1.56-.51,3.26-.77,5.1-.77,2.54,0,4.91.37,7.09,1.1,2.18.74,3.94,1.74,5.27,3.02l-3.89,5.76c-.61-.64-1.36-1.2-2.26-1.68-.9-.48-1.87-.86-2.93-1.13-1.06-.27-2.12-.41-3.19-.41s-1.98.14-2.76.42c-.78.28-1.4.67-1.84,1.16-.44.5-.66,1.1-.66,1.8,0,.54.16,1,.49,1.38.33.38.88.73,1.66,1.07.78.34,1.83.7,3.16,1.1l2.93.86c3.44,1.01,5.93,2.27,7.46,3.79s2.3,3.5,2.3,5.93c0,2.13-.54,4-1.63,5.63-1.09,1.62-2.63,2.89-4.62,3.8-1.99.91-4.36,1.37-7.09,1.37Z" class="cls-1"/><path d="M381.21,388.22c-3.15,0-5.8-.62-7.93-1.87-2.14-1.25-3.75-2.96-4.84-5.15-1.09-2.18-1.63-4.69-1.63-7.52v-19.78h7.97v20.06c0,2.29.57,3.99,1.7,5.1,1.14,1.11,2.71,1.67,4.73,1.67s3.56-.56,4.68-1.67c1.12-1.11,1.68-2.81,1.68-5.1v-20.06h8.02v19.78c0,2.82-.54,5.32-1.63,7.5-1.09,2.18-2.7,3.9-4.84,5.16s-4.77,1.88-7.91,1.88Z" class="cls-1"/><path d="M400.58,387.5v-33.6h13.46c2.51,0,4.74.44,6.67,1.32,1.94.88,3.46,2.15,4.57,3.8,1.11,1.66,1.67,3.65,1.67,5.99s-.51,4.38-1.54,6.02c-1.02,1.65-2.51,2.9-4.46,3.77-1.95.86-4.32,1.3-7.1,1.3h-5.3v11.4h-7.97ZM408.54,369.42h5.11c1.66,0,2.97-.33,3.91-1,.94-.66,1.42-1.76,1.42-3.28s-.48-2.68-1.45-3.37c-.97-.7-2.24-1.04-3.83-1.04h-5.16v8.69Z" class="cls-1"/><path d="M431.14,387.5v-33.6h13.46c2.51,0,4.74.44,6.67,1.32,1.94.88,3.46,2.15,4.57,3.8,1.11,1.66,1.67,3.65,1.67,5.99s-.51,4.38-1.54,6.02c-1.02,1.65-2.51,2.9-4.46,3.77-1.95.86-4.32,1.3-7.1,1.3h-5.3v11.4h-7.97ZM439.11,369.42h5.11c1.66,0,2.97-.33,3.91-1,.94-.66,1.42-1.76,1.42-3.28s-.48-2.68-1.45-3.37c-.97-.7-2.24-1.04-3.83-1.04h-5.16v8.69Z" class="cls-1"/><path d="M461.71,387.5v-33.6h7.97v26.33h13.49v7.27h-21.46Z" class="cls-1"/><path d="M486.96,387.5v-33.6h7.97v33.6h-7.97Z" class="cls-1"/><path d="M500.35,387.5v-33.6h23.62v6.91h-15.65v6.24h13.13v6.38h-13.13v7.08h15.84v6.98h-23.81Z" class="cls-1"/><path d="M528.95,387.5v-33.6h13.63c2.5,0,4.68.41,6.54,1.22s3.3,1.99,4.32,3.52c1.02,1.53,1.52,3.37,1.52,5.53,0,1.65-.31,3.1-.94,4.34s-1.48,2.29-2.57,3.13c-1.09.84-2.32,1.46-3.7,1.86l9.05,13.99h-9.46l-7.49-12.36h-2.95v12.36h-7.97ZM536.92,368.75h4.7c1.66,0,2.96-.33,3.9-.98.94-.66,1.4-1.69,1.4-3.1s-.44-2.52-1.33-3.2c-.89-.68-2.16-1.02-3.8-1.02h-4.87v8.3Z" class="cls-1"/></g></svg>