<?xml version="1.0" encoding="UTF-8"?>
<svg id="Layer_1" data-name="Layer 1" xmlns="http://www.w3.org/2000/svg" viewBox="0 0 285.68 46.11">
  <defs>
    <style>
      .cls-1 {
        fill: #373a36;
      }

      .cls-2 {
        fill: #00467f;
      }
    </style>
  </defs>
  <path class="cls-2" d="M38.86,27.83l-6.67,6.67c-7.36,7.36-19.32,7.36-26.68,0C-1.84,27.14-1.84,15.17,5.52,7.82L12.19,1.15c1.53-1.53,4.02-1.53,5.56,0,1.53,1.53,1.53,4.02,0,5.56l-6.67,6.67c-4.29,4.29-4.29,11.27,0,15.56,4.29,4.29,11.27,4.29,15.56,0l6.67-6.67c1.53-1.54,4.02-1.54,5.56,0,1.53,1.53,1.53,4.02,0,5.56"/>
  <path class="cls-1" d="M49.51,38.3l-6.67,6.67c-1.54,1.53-4.02,1.53-5.56,0-1.53-1.53-1.53-4.02,0-5.56l6.67-6.67c4.29-4.29,4.29-11.27,0-15.56-4.29-4.29-11.27-4.29-15.56,0l-6.67,6.67c-1.53,1.54-4.02,1.54-5.56,0-1.54-1.53-1.54-4.02,0-5.56l6.67-6.67c7.35-7.35,19.32-7.35,26.68,0,7.35,7.35,7.35,19.32,0,26.68"/>
  <path class="cls-2" d="M90.64,19.01c0,2.57-.22,2.6-1.95,2.86-.79.12-4.84.31-7.29.31-3.04,0-6.17-.12-7.65-.28-1.56-.14-1.87-.55-2.06-1.77-.14-1.17-.35-4.98-.35-6.86,0-5.16.71-6.16.89-6.31.71-.56,3.91-.84,9.49-.84s7.25.43,7.73.6c.71.28,1.01.4,1.04,2.57v1.96h5.26l-.02-1.15c-.07-4.22-.23-5.34-1.61-6.73-1.83-1.87-4.46-2.38-12.25-2.38-1.97,0-5.11.07-6.63.18-3.85.23-5.36.61-6.74,1.68-1.98,1.59-2.65,4.54-2.65,11.68,0,6.22.58,8.98,2.21,10.56,1.87,1.83,4.41,2.22,14.31,2.22,7.81,0,10.13-.39,11.83-2,1.44-1.39,1.63-2.63,1.82-7.33l.05-1.18h-5.36l-.07,2.21Z"/>
  <path class="cls-2" d="M125.05,20.18c-.2.97-.59,1.38-1.53,1.55-1.53.27-4.76.45-8.23.45-1.48,0-5.47-.1-6.77-.18-2.52-.17-3.18-.4-3.51-.74-.71-.78-.71-5.28-.71-7.45,0-4.98.46-6.45.85-6.8h0c.85-.78,5.02-.89,8.55-.89,5.96,0,7.85.07,9.62.34,1.44.23,1.65.78,1.75,1.43.19.96.34,3.72.34,6.41,0,2.07-.16,4.61-.37,5.87M128.67,3.25c-1.94-1.93-4.98-2.26-13.09-2.26-2.03,0-6.19.1-7.71.18-3.45.23-4.87.6-6.32,1.67-2.1,1.63-2.77,4.35-2.77,11.22,0,4.07.16,6.3.56,7.92.52,2.35,2.39,4.2,4.77,4.73,1.86.41,5.84.6,12.51.6,7.77,0,10.5-.51,12.2-2.3,1.57-1.7,2.13-4.52,2.13-10.77,0-1.9-.11-4.35-.26-5.56-.24-2.43-.65-4.1-2.02-5.43"/>
  <path class="cls-2" d="M158.54,11.95c-.33.62-1.27,1.01-4.95,1.01h-13.46v-6.85h10.59c5.27,0,6.82.13,7.53.66.26.18.67,1.04.67,2.59,0,1.26-.24,2.34-.37,2.59M164.44,9.4c0-2.14-.24-3.47-.88-4.78-.92-1.81-2.7-2.96-4.98-3.26-1.71-.22-1.83-.22-7.86-.3h-16.05v26.18h5.46v-9.21h10.59q5.08.04,6.12.2c1,.14,1.46.63,1.59,1.71q.13.85.13,3.88v3.43h5.46v-4.54c0-4.14-.13-5.25-1.39-6.55-.12-.12-.24-.24-.36-.35,1.79-1.2,2.18-3.24,2.18-6.41"/>
  <polygon class="cls-2" points="194.99 21.18 174.93 1.06 168.02 1.06 168.02 27.24 173.48 27.24 173.48 7.19 193.43 27.24 200.44 27.24 200.44 1.06 194.99 1.06 194.99 21.18"/>
  <polygon class="cls-2" points="210.09 16.23 229.45 16.23 229.45 11.17 210.09 11.17 210.09 6.12 230.31 6.12 230.31 1.06 204.63 1.06 204.63 27.24 230.35 27.24 230.35 22.18 210.09 22.18 210.09 16.23"/>
  <polygon class="cls-2" points="239.39 1.06 233.93 1.06 233.93 27.24 258.25 27.24 258.25 22.18 239.39 22.18 239.39 1.06"/>
  <polygon class="cls-2" points="266.82 22.18 266.82 1.06 261.36 1.06 261.36 27.24 285.68 27.24 285.68 22.18 266.82 22.18"/>
  <path class="cls-1" d="M73.59,35.91c-.42-.51-.98-.77-1.83-.77h-1.85v8.16h1.85c.84,0,1.41-.26,1.83-.77.46-.56.53-1.46.53-3.36s-.07-2.69-.53-3.25M75.3,44.28c-.83.83-2,1.19-3.31,1.19h-4.52v-12.52h4.52c1.3,0,2.48.37,3.31,1.19,1.41,1.41,1.27,3.13,1.27,5.01s.14,3.71-1.27,5.12"/>
  <rect class="cls-1" x="85.27" y="32.95" width="2.44" height="12.52"/>
  <polygon class="cls-1" points="97.19 45.47 97.19 32.95 105.43 32.95 105.43 35.13 99.63 35.13 99.63 38.07 104.57 38.07 104.57 40.25 99.63 40.25 99.63 43.29 105.43 43.29 105.43 45.47 97.19 45.47"/>
  <path class="cls-1" d="M117.47,45.58c-1.9,0-3.34-.4-4.57-1.65l1.58-1.58c.79.79,1.86,1.06,3.02,1.06,1.44,0,2.21-.54,2.21-1.55,0-.44-.12-.81-.39-1.06-.25-.23-.53-.35-1.11-.44l-1.51-.21c-1.07-.16-1.86-.49-2.43-1.04-.6-.6-.9-1.41-.9-2.46,0-2.23,1.65-3.8,4.36-3.8,1.72,0,2.97.42,4.04,1.46l-1.55,1.53c-.79-.76-1.74-.86-2.57-.86-1.3,0-1.93.72-1.93,1.58,0,.32.11.65.37.89.25.23.65.42,1.16.49l1.48.21c1.14.16,1.86.47,2.39.97.67.63.97,1.55.97,2.65,0,2.43-2.02,3.8-4.64,3.8"/>
  <polygon class="cls-1" points="130.62 45.47 130.62 32.95 138.87 32.95 138.87 35.13 133.07 35.13 133.07 38.07 138.01 38.07 138.01 40.25 133.07 40.25 133.07 43.29 138.87 43.29 138.87 45.47 130.62 45.47"/>
  <polygon class="cls-1" points="147.46 45.47 147.46 32.95 149.91 32.95 149.91 43.29 155.59 43.29 155.59 45.47 147.46 45.47"/>
  <path class="cls-1" d="M178.21,45.58c-1.9,0-3.34-.4-4.57-1.65l1.58-1.58c.79.79,1.86,1.06,3.02,1.06,1.44,0,2.21-.54,2.21-1.55,0-.44-.12-.81-.39-1.06-.25-.23-.53-.35-1.11-.44l-1.51-.21c-1.07-.16-1.86-.49-2.43-1.04-.6-.6-.9-1.41-.9-2.46,0-2.23,1.65-3.8,4.36-3.8,1.72,0,2.97.42,4.04,1.46l-1.55,1.53c-.79-.76-1.74-.86-2.57-.86-1.3,0-1.93.72-1.93,1.58,0,.32.1.65.37.89.25.23.65.42,1.16.49l1.48.21c1.14.16,1.86.47,2.39.97.67.63.97,1.55.97,2.65,0,2.43-2.02,3.8-4.64,3.8"/>
  <polygon class="cls-1" points="195.79 40.34 195.79 45.47 193.37 45.47 193.37 40.34 189.6 32.95 192.26 32.95 194.6 38 196.9 32.95 199.56 32.95 195.79 40.34"/>
  <path class="cls-1" d="M210.01,45.58c-1.9,0-3.34-.4-4.57-1.65l1.58-1.58c.79.79,1.86,1.06,3.02,1.06,1.44,0,2.21-.54,2.21-1.55,0-.44-.12-.81-.39-1.06-.25-.23-.53-.35-1.11-.44l-1.51-.21c-1.07-.16-1.86-.49-2.43-1.04-.6-.6-.9-1.41-.9-2.46,0-2.23,1.65-3.8,4.36-3.8,1.72,0,2.97.42,4.04,1.46l-1.55,1.53c-.79-.76-1.74-.86-2.57-.86-1.3,0-1.93.72-1.93,1.58,0,.32.1.65.37.89.25.23.65.42,1.16.49l1.48.21c1.14.16,1.86.47,2.39.97.67.63.97,1.55.97,2.65,0,2.43-2.02,3.8-4.64,3.8"/>
  <polygon class="cls-1" points="227.6 35.13 227.6 45.47 225.15 45.47 225.15 35.13 221.88 35.13 221.88 32.95 230.87 32.95 230.87 35.13 227.6 35.13"/>
  <polygon class="cls-1" points="238.71 45.47 238.71 32.95 246.95 32.95 246.95 35.13 241.15 35.13 241.15 38.07 246.09 38.07 246.09 40.25 241.15 40.25 241.15 43.29 246.95 43.29 246.95 45.47 238.71 45.47"/>
  <polygon class="cls-1" points="264.44 45.47 264.44 38.18 262.05 42.92 260.4 42.92 257.99 38.18 257.99 45.47 255.55 45.47 255.55 32.95 257.96 32.95 261.23 39.72 264.48 32.95 266.89 32.95 266.89 45.47 264.44 45.47"/>
  <path class="cls-1" d="M279.46,45.58c-1.9,0-3.34-.4-4.57-1.65l1.58-1.58c.79.79,1.86,1.06,3.02,1.06,1.44,0,2.21-.54,2.21-1.55,0-.44-.12-.81-.39-1.06-.25-.23-.53-.35-1.11-.44l-1.51-.21c-1.07-.16-1.86-.49-2.43-1.04-.6-.6-.9-1.41-.9-2.46,0-2.23,1.65-3.8,4.36-3.8,1.72,0,2.97.42,4.04,1.46l-1.55,1.53c-.79-.76-1.74-.86-2.57-.86-1.3,0-1.93.72-1.93,1.58,0,.32.1.65.37.89.25.23.65.42,1.16.49l1.48.21c1.14.16,1.86.47,2.39.97.67.63.97,1.55.97,2.65,0,2.43-2.02,3.8-4.64,3.8"/>
</svg>