<?xml version="1.0" encoding="UTF-8"?>
<svg id="Layer_1" xmlns="http://www.w3.org/2000/svg" version="1.1" viewBox="0 0 420.67 176.67">
  <!-- Generator: Adobe Illustrator 29.6.0, SVG Export Plug-In . SVG Version: 2.1.1 Build 207)  -->
  <defs>
    <style>
      .st0 {
        fill: #fff;
      }
    </style>
  </defs>
  <path class="st0" d="M106.57,92.77l-6.67,6.67c-7.36,7.36-19.32,7.36-26.68,0-7.36-7.35-7.36-19.32,0-26.68l6.67-6.67c1.53-1.53,4.02-1.53,5.56,0,1.53,1.53,1.53,4.02,0,5.56l-6.67,6.67c-4.29,4.29-4.29,11.27,0,15.56,4.29,4.29,11.27,4.29,15.56,0l6.67-6.67c1.53-1.54,4.02-1.54,5.56,0,1.53,1.53,1.53,4.02,0,5.56"/>
  <path class="st0" d="M117.22,103.24l-6.67,6.67c-1.54,1.53-4.02,1.53-5.56,0-1.53-1.53-1.53-4.02,0-5.56l6.67-6.67c4.29-4.29,4.29-11.27,0-15.56-4.29-4.29-11.27-4.29-15.56,0l-6.67,6.67c-1.53,1.54-4.02,1.54-5.56,0-1.54-1.53-1.54-4.02,0-5.56l6.67-6.67c7.35-7.35,19.32-7.35,26.68,0,7.35,7.35,7.35,19.32,0,26.68"/>
  <path class="st0" d="M158.35,83.95c0,2.57-.22,2.6-1.95,2.86-.79.12-4.84.31-7.29.31-3.04,0-6.17-.12-7.65-.28-1.56-.14-1.87-.55-2.06-1.77-.14-1.17-.35-4.98-.35-6.86,0-5.16.71-6.16.89-6.31.71-.56,3.91-.84,9.49-.84s7.25.43,7.73.6c.71.28,1.01.4,1.04,2.57v1.96h5.26l-.02-1.15c-.07-4.22-.23-5.34-1.61-6.73-1.83-1.87-4.46-2.38-12.25-2.38-1.97,0-5.11.07-6.63.18-3.85.23-5.36.61-6.74,1.68-1.98,1.59-2.65,4.54-2.65,11.68,0,6.22.58,8.98,2.21,10.56,1.87,1.83,4.41,2.22,14.31,2.22,7.81,0,10.13-.39,11.83-2,1.44-1.39,1.63-2.63,1.82-7.33l.05-1.18h-5.36l-.07,2.21Z"/>
  <path class="st0" d="M192.76,85.13c-.2.97-.59,1.38-1.53,1.55-1.53.27-4.76.45-8.23.45-1.48,0-5.47-.1-6.77-.18-2.52-.17-3.18-.4-3.51-.74-.71-.78-.71-5.28-.71-7.45,0-4.98.46-6.45.85-6.8h0c.85-.78,5.02-.89,8.55-.89,5.96,0,7.85.07,9.62.34,1.44.23,1.65.78,1.75,1.43.19.96.34,3.72.34,6.41,0,2.07-.16,4.61-.37,5.87M196.38,68.19c-1.94-1.93-4.98-2.26-13.09-2.26-2.03,0-6.19.1-7.71.18-3.45.23-4.87.6-6.32,1.67-2.1,1.63-2.77,4.35-2.77,11.22,0,4.07.16,6.3.56,7.92.52,2.35,2.39,4.2,4.77,4.73,1.86.41,5.84.6,12.51.6,7.77,0,10.5-.51,12.2-2.3,1.57-1.7,2.13-4.52,2.13-10.77,0-1.9-.11-4.35-.26-5.56-.24-2.43-.65-4.1-2.02-5.43"/>
  <path class="st0" d="M226.25,76.9c-.33.62-1.27,1.01-4.95,1.01h-13.46v-6.85h10.59c5.27,0,6.82.13,7.53.66.26.18.67,1.04.67,2.59,0,1.26-.24,2.34-.37,2.59M232.15,74.34c0-2.14-.24-3.47-.88-4.78-.92-1.81-2.7-2.96-4.98-3.26-1.71-.22-1.83-.22-7.86-.3h-16.05v26.18h5.46v-9.21h10.59q5.08.04,6.12.2c1,.14,1.46.63,1.59,1.71q.13.85.13,3.88v3.43h5.46v-4.54c0-4.14-.13-5.25-1.39-6.55-.12-.12-.24-.24-.36-.35,1.79-1.2,2.18-3.24,2.18-6.41"/>
  <polygon class="st0" points="262.69 86.13 242.64 66 235.73 66 235.73 92.19 241.18 92.19 241.18 72.14 261.13 92.19 268.15 92.19 268.15 66 262.69 66 262.69 86.13"/>
  <polygon class="st0" points="277.8 81.18 297.16 81.18 297.16 76.12 277.8 76.12 277.8 71.07 298.02 71.07 298.02 66 272.34 66 272.34 92.19 298.06 92.19 298.06 87.13 277.8 87.13 277.8 81.18"/>
  <polygon class="st0" points="307.09 66 301.64 66 301.64 92.19 325.96 92.19 325.96 87.13 307.09 87.13 307.09 66"/>
  <polygon class="st0" points="334.52 87.12 334.52 66 329.07 66 329.07 92.19 353.39 92.19 353.39 87.12 334.52 87.12"/>
  <path class="st0" d="M141.3,100.85c-.42-.51-.98-.77-1.83-.77h-1.85v8.16h1.85c.84,0,1.41-.26,1.83-.77.46-.56.53-1.46.53-3.36s-.07-2.69-.53-3.25M143.01,109.22c-.83.83-2,1.19-3.31,1.19h-4.52v-12.52h4.52c1.3,0,2.48.37,3.31,1.19,1.41,1.41,1.27,3.13,1.27,5.01s.14,3.71-1.27,5.12"/>
  <rect class="st0" x="152.97" y="97.9" width="2.44" height="12.52"/>
  <polygon class="st0" points="164.89 110.42 164.89 97.9 173.14 97.9 173.14 100.08 167.34 100.08 167.34 103.02 172.28 103.02 172.28 105.2 167.34 105.2 167.34 108.24 173.14 108.24 173.14 110.42 164.89 110.42"/>
  <path class="st0" d="M185.18,110.52c-1.9,0-3.34-.4-4.57-1.65l1.58-1.58c.79.79,1.86,1.06,3.02,1.06,1.44,0,2.21-.54,2.21-1.55,0-.44-.12-.81-.39-1.06-.25-.23-.53-.35-1.11-.44l-1.51-.21c-1.07-.16-1.86-.49-2.43-1.04-.6-.6-.9-1.41-.9-2.46,0-2.23,1.65-3.8,4.36-3.8,1.72,0,2.97.42,4.04,1.46l-1.55,1.53c-.79-.76-1.74-.86-2.57-.86-1.3,0-1.93.72-1.93,1.58,0,.32.11.65.37.89.25.23.65.42,1.16.49l1.48.21c1.14.16,1.86.47,2.39.97.67.63.97,1.55.97,2.65,0,2.43-2.02,3.8-4.64,3.8"/>
  <polygon class="st0" points="198.33 110.42 198.33 97.9 206.57 97.9 206.57 100.08 200.77 100.08 200.77 103.02 205.71 103.02 205.71 105.2 200.77 105.2 200.77 108.24 206.57 108.24 206.57 110.42 198.33 110.42"/>
  <polygon class="st0" points="215.17 110.42 215.17 97.9 217.62 97.9 217.62 108.24 223.29 108.24 223.29 110.42 215.17 110.42"/>
  <path class="st0" d="M245.92,110.52c-1.9,0-3.34-.4-4.57-1.65l1.58-1.58c.79.79,1.86,1.06,3.02,1.06,1.44,0,2.21-.54,2.21-1.55,0-.44-.12-.81-.39-1.06-.25-.23-.53-.35-1.11-.44l-1.51-.21c-1.07-.16-1.86-.49-2.43-1.04-.6-.6-.9-1.41-.9-2.46,0-2.23,1.65-3.8,4.36-3.8,1.72,0,2.97.42,4.04,1.46l-1.55,1.53c-.79-.76-1.74-.86-2.57-.86-1.3,0-1.93.72-1.93,1.58,0,.32.1.65.37.89.25.23.65.42,1.16.49l1.48.21c1.14.16,1.86.47,2.39.97.67.63.97,1.55.97,2.65,0,2.43-2.02,3.8-4.64,3.8"/>
  <polygon class="st0" points="263.5 105.28 263.5 110.42 261.07 110.42 261.07 105.28 257.31 97.9 259.97 97.9 262.3 102.95 264.61 97.9 267.26 97.9 263.5 105.28"/>
  <path class="st0" d="M277.72,110.52c-1.9,0-3.34-.4-4.57-1.65l1.58-1.58c.79.79,1.86,1.06,3.02,1.06,1.44,0,2.21-.54,2.21-1.55,0-.44-.12-.81-.39-1.06-.25-.23-.53-.35-1.11-.44l-1.51-.21c-1.07-.16-1.86-.49-2.43-1.04-.6-.6-.9-1.41-.9-2.46,0-2.23,1.65-3.8,4.36-3.8,1.72,0,2.97.42,4.04,1.46l-1.55,1.53c-.79-.76-1.74-.86-2.57-.86-1.3,0-1.93.72-1.93,1.58,0,.32.1.65.37.89.25.23.65.42,1.16.49l1.48.21c1.14.16,1.86.47,2.39.97.67.63.97,1.55.97,2.65,0,2.43-2.02,3.8-4.64,3.8"/>
  <polygon class="st0" points="295.3 100.08 295.3 110.42 292.86 110.42 292.86 100.08 289.59 100.08 289.59 97.9 298.57 97.9 298.57 100.08 295.3 100.08"/>
  <polygon class="st0" points="306.41 110.42 306.41 97.9 314.66 97.9 314.66 100.08 308.86 100.08 308.86 103.02 313.8 103.02 313.8 105.2 308.86 105.2 308.86 108.24 314.66 108.24 314.66 110.42 306.41 110.42"/>
  <polygon class="st0" points="332.15 110.42 332.15 103.12 329.76 107.87 328.11 107.87 325.7 103.12 325.7 110.42 323.25 110.42 323.25 97.9 325.66 97.9 328.93 104.67 332.19 97.9 334.59 97.9 334.59 110.42 332.15 110.42"/>
  <path class="st0" d="M347.16,110.52c-1.9,0-3.34-.4-4.57-1.65l1.58-1.58c.79.79,1.86,1.06,3.02,1.06,1.44,0,2.21-.54,2.21-1.55,0-.44-.12-.81-.39-1.06-.25-.23-.53-.35-1.11-.44l-1.51-.21c-1.07-.16-1.86-.49-2.43-1.04-.6-.6-.9-1.41-.9-2.46,0-2.23,1.65-3.8,4.36-3.8,1.72,0,2.97.42,4.04,1.46l-1.55,1.53c-.79-.76-1.74-.86-2.57-.86-1.3,0-1.93.72-1.93,1.58,0,.32.1.65.37.89.25.23.65.42,1.16.49l1.48.21c1.14.16,1.86.47,2.39.97.67.63.97,1.55.97,2.65,0,2.43-2.02,3.8-4.64,3.8"/>
</svg>