<svg xmlns="http://www.w3.org/2000/svg" id="Logo" viewBox="0 0 726.37 150.97"><defs><style>.cls-1{fill:#f8c014}.cls-2{fill:#fff}</style></defs><g><path d="M387.46,32.88v8.04h-28.69v6.12h27.04v7.03h-27.04v6.28h29.06v8.04h-39.71v-35.51h39.34Z" class="cls-2"/><path d="M394.49,32.88h17.19l21.51,26.99-.27-26.99h10.22v35.51h-17.35l-21.19-26.72.27,26.72h-10.38v-35.51Z" class="cls-2"/><path d="M485.9,44.92c0-2.77-1.22-3.83-4.47-3.94h-2.71l-3.83-.05-3.94.05q-5.16,0-6.44.32c-1.97.48-2.82,1.49-3.09,3.73-.16.96-.27,4.21-.27,6.49,0,4.79.48,6.71,1.97,7.72,1.22.8,2.71,1.12,5.54,1.17q1.17.05,7.83.05c7.08.05,8.41-.32,9.32-2.66.11-.43.16-.91.16-1.97v-.85h-13.68v-6.6h24.22v4.9c0,5.86-.21,7.93-.9,9.85-1.22,3.3-3.73,4.9-8.2,5.38-1.12.11-4.36.16-14.85.16-8.14,0-11.29-.16-13.52-.64-3.89-.85-6.17-2.5-7.4-5.43-1.06-2.4-1.33-4.9-1.33-11.5,0-7.61.43-10.65,1.81-13.15,1.6-2.77,4.1-4.21,8.68-4.84,2.45-.32,6.76-.48,13.52-.48,9.69,0,12.78.16,15.01.69,5.48,1.38,7.24,4.15,7.19,11.6h-10.59Z" class="cls-2"/><path d="M503.73,32.88h10.81v35.51h-10.81v-35.51Z" class="cls-2"/><path d="M522.47,32.88h17.19l21.51,26.99-.27-26.99h10.22v35.51h-17.35l-21.19-26.72.27,26.72h-10.38v-35.51Z" class="cls-2"/><path d="M618.35,32.88v8.04h-28.69v6.12h27.04v7.03h-27.04v6.28h29.06v8.04h-39.71v-35.51h39.34Z" class="cls-2"/><path d="M358.13,103.13c.11,2.45.37,3.03,1.65,3.51.8.32,3.83.53,7.24.53,12.51,0,14-.37,14-3.3,0-1.44-.69-2.5-1.81-2.88q-1.17-.37-6.76-.43h-9.79c-6.55,0-9.26-.37-11.55-1.54-2.56-1.33-3.73-4.15-3.73-9,0-6.39,1.81-9.1,6.92-10.33,2.87-.75,7.03-1.01,14.8-1.01,12.46,0,15.33.32,17.89,1.97,2.45,1.65,3.25,3.83,3.25,9.16h-10.54c0-3.09-1.06-3.51-8.04-3.51-3.46,0-8.09.11-9.79.21-2.87.21-3.83.96-3.83,2.98,0,1.49.74,2.45,2.29,2.82.64.16.85.21,4.37.27h10.06c.96,0,5.75.16,7.56.27,6.76.32,9.42,3.3,9.42,10.43,0,6.55-1.92,9.42-7.13,10.54-2.66.58-7.93.9-15.65.9-12.3,0-15.01-.27-18.15-1.86-2.18-1.06-3.3-3.78-3.3-7.98,0-.32,0-1.01.05-1.76h10.59Z" class="cls-2"/><path d="M412.06,102.17l-20.28-23.21h13.79l11.98,14.69,11.87-14.69h13.52l-20.01,23.21v12.3h-10.86v-12.3Z" class="cls-2"/><path d="M455.4,103.13c.11,2.45.37,3.03,1.65,3.51.8.32,3.83.53,7.24.53,12.51,0,14-.37,14-3.3,0-1.44-.69-2.5-1.81-2.88q-1.17-.37-6.76-.43h-9.79c-6.55,0-9.26-.37-11.55-1.54-2.56-1.33-3.73-4.15-3.73-9,0-6.39,1.81-9.1,6.92-10.33,2.87-.75,7.03-1.01,14.8-1.01,12.46,0,15.33.32,17.89,1.97,2.45,1.65,3.25,3.83,3.25,9.16h-10.54c0-3.09-1.06-3.51-8.04-3.51-3.46,0-8.09.11-9.79.21-2.87.21-3.83.96-3.83,2.98,0,1.49.74,2.45,2.29,2.82.64.16.85.21,4.37.27h10.06c.96,0,5.75.16,7.56.27,6.76.32,9.42,3.3,9.42,10.43,0,6.55-1.92,9.42-7.13,10.54-2.66.58-7.93.9-15.65.9-12.3,0-15.01-.27-18.15-1.86-2.18-1.06-3.3-3.78-3.3-7.98,0-.32,0-1.01.05-1.76h10.59Z" class="cls-2"/><path d="M508.05,87.74h-15.81v-8.78h42.42v8.78h-15.81v26.72h-10.81v-26.72Z" class="cls-2"/><path d="M579.54,78.96v8.04h-28.69v6.12h27.04v7.03h-27.04v6.28h29.06v8.04h-39.71v-35.51h39.34Z" class="cls-2"/><path d="M586.57,78.96h17.14l12.94,23.58,12.88-23.58h17.03v35.51h-10.54l.53-27.41-15.76,27.41h-8.62l-15.49-27.41.32,27.41h-10.43v-35.51Z" class="cls-2"/><path d="M664.5,103.13c.11,2.45.37,3.03,1.65,3.51.8.32,3.83.53,7.24.53,12.51,0,14-.37,14-3.3,0-1.44-.69-2.5-1.81-2.88q-1.17-.37-6.76-.43h-9.79c-6.55,0-9.26-.37-11.55-1.54-2.56-1.33-3.73-4.15-3.73-9,0-6.39,1.81-9.1,6.92-10.33,2.87-.75,7.03-1.01,14.8-1.01,12.46,0,15.33.32,17.89,1.97,2.45,1.65,3.25,3.83,3.25,9.16h-10.54c0-3.09-1.06-3.51-8.04-3.51-3.46,0-8.09.11-9.79.21-2.87.21-3.83.96-3.83,2.98,0,1.49.74,2.45,2.29,2.82.64.16.85.21,4.37.27h10.06c.96,0,5.75.16,7.56.27,6.76.32,9.42,3.3,9.42,10.43,0,6.55-1.92,9.42-7.13,10.54-2.66.58-7.93.9-15.65.9-12.3,0-15.01-.27-18.15-1.86-2.18-1.06-3.3-3.78-3.3-7.98,0-.32,0-1.01.05-1.76h10.59Z" class="cls-2"/></g><g><polygon points="225.04 19.55 224.88 19.57 224.88 19.57 184.01 24.98 153 29.07 140.07 30.78 155.9 58.9 163.12 54.81 163.12 120.26 182.99 120.26 182.99 43.56 186.77 41.42 225.04 19.55" class="cls-2"/><polygon points="39.28 120.26 61.96 120.27 70.08 69.32 90.76 120.27 100.68 120.27 121.61 69.66 128.55 120.26 152.14 120.26 137.84 30.07 114.82 30.09 96.05 78.59 76.77 30.09 54.44 30.09 39.28 120.26" class="cls-2"/><path d="M280.35,105.61s8.44-8.15,11.52-21.51c2.77-11.99-1.23-22.74-1.23-22.74,0,0-4.45-14.9-18.59-23.97-8.14-5.22-17.83-8.94-30.42-8.91-12.87.03-24.34,5.02-32.11,11.06-10.11,7.85-14.59,17.86-16.14,23.35-1.35,4.82-2.61,12.45-.92,20.59.95,4.57,3.21,11.46,7.94,17.59,8.05,10.43,18.16,16.42,30.39,19.21,19.51,4.46,35.07-4.17,35.07-4.17l7.15,7.23,20.94-3.99-13.6-13.75ZM263.3,88.48l-6.99-6.99-21.28,3.3,13.22,13.37s-5.76,1.61-12.52-.16c-4.46-1.17-8.82-3.39-11.98-6.46-3.29-3.19-5.32-7.28-6.3-10.98-1.03-3.95-1.21-10.72,2.23-16.82,2.91-5.16,8.76-9.88,15.06-11.68,13.22-3.77,23.12,3.92,23.12,3.92,0,0,8.15,5.07,9.84,15.83,1.52,9.68-4.38,16.67-4.38,16.67Z" class="cls-2"/></g><rect width="5" height="90.18" x="317.99" y="30.82" class="cls-1"/></svg>